<svg width="164" height="92" viewBox="0 0 164 92" fill="none" xmlns="http://www.w3.org/2000/svg">
<path d="M34.8714 31.5666C28.8955 36.8763 18.4748 37.7818 12.053 42.9443C8.76027 45.5913 18.2452 37.3488 21.4884 34.6626C25.856 31.0452 19.004 35.2847 17.2521 36.0171C12.4931 38.0064 17.1895 37.3824 20.0442 36.675C22.001 36.19 33.3047 32.5045 32.4644 33.5403C29.8146 36.8065 26.2053 39.979 22.7401 42.7121C21.881 43.3896 19.4711 45.3714 19.8517 44.4535C20.8553 42.0332 30.0045 39.2095 32.32 38.2616C36.6416 36.4924 41.1358 35.0249 45.4622 33.2694C46.0397 33.0351 46.6172 32.7936 47.1471 32.4954C47.41 32.3475 46.4797 32.3947 46.1843 32.4954C38.8766 34.9877 32.6301 39.7382 25.9173 43.0991C21.9407 45.09 17.0524 47.4646 23.7992 43.2926C25.6356 42.1569 28.4898 40.8773 29.8648 39.3065C31.0726 37.9268 25.9686 40.5702 24.088 41.3189C22.2506 42.0504 7.50881 48.0756 13.9786 43.0604C19.2205 38.9969 36.6507 28.4334 31.5016 32.5728C29.4054 34.2579 26.6969 35.0633 24.9545 37.1006C24.7091 37.3876 22.4682 39.8534 24.088 39.3065C29.8331 37.3668 35.0395 34.2861 40.1668 31.4892C42.9865 29.9511 33.6894 33.9395 32.7051 34.3917C24.4011 38.2062 16.6416 42.9184 8.49064 46.969C7.84681 47.2889 7.20257 47.6085 6.56504 47.9365C5.23372 48.6214 7.03226 47.8218 7.52784 47.6269C12.9901 45.478 18.6664 43.5972 23.8955 41.0867C25.9005 40.1241 27.3521 39.0806 29.0946 37.9133C30.4562 37.0012 26.5401 39.8961 25.1471 40.7771C23.6334 41.7344 22.0387 42.6078 20.5256 43.5634C19.8897 43.9651 25.8955 41.9227 26.0618 41.8607C29.4182 40.6093 32.7433 39.2725 35.9305 37.7585C37.1987 37.1561 38.8822 35.8088 36.5081 37.2167C34.109 38.6395 31.9576 40.3191 29.7685 41.9381C27.811 43.3858 21.1909 46.6144 23.7992 46.195C25.7646 45.879 29.3505 43.561 30.9239 42.8669C33.4569 41.7494 39.7672 37.9299 42.8626 38.0681C45.0997 38.168 39.4476 40.4169 37.5672 41.3963C32.9089 43.8225 27.9749 45.9254 23.1252 48.0913C16.5465 51.0294 19.4634 49.2628 23.9917 46.6594C32.5316 41.7498 43.0706 38.425 50.9501 32.8824C58.1477 27.8196 36.9635 43.9588 28.0836 46.8142C23.5938 48.2579 33.6607 45.5772 34.2937 45.3436C36.2761 44.6121 38.1426 43.5564 40.1668 42.9056C40.8407 42.6889 35.2118 46.9664 35.2084 46.969C34.6121 47.4103 23.8567 54.2572 29.4797 51.9612C35.1472 49.647 40.6911 47.099 46.0399 44.3374C48.3014 43.1698 55.0312 40.3538 56.2456 37.9133C57.5156 35.361 51.3499 41.7713 48.6394 43.4473C45.189 45.581 34.6933 51.6945 37.6635 49.1362C40.8283 46.4103 44.8799 44.8587 37.5191 47.3947C33.9594 48.6211 30.4477 49.9371 26.8801 51.1485C22.9617 52.4791 23.9546 51.8635 26.6876 50.2971C32.978 46.6918 39.7104 43.0063 44.9808 38.4164C47.7476 36.0068 39.6515 43.3881 36.797 45.7306C34.2141 47.8502 31.3733 49.1892 28.2762 50.8002C27.0495 51.4383 23.5027 53.4443 24.8583 53.0061C32.9334 50.3954 40.7576 46.8801 48.3506 43.486C51.3301 42.1542 54.7651 40.7476 57.3046 38.8421C58.8761 37.663 54.388 41.3867 53.0683 42.7508C48.9424 47.0152 45.1736 51.2374 39.1077 53.8575C33.879 56.116 17.2913 61.3853 22.7882 59.585C29.5728 57.363 35.9566 54.0968 41.8998 50.6841C46.2837 48.1669 38.9035 54.3129 38.0005 55.1733C32.9912 59.9459 43.1408 50.0843 44.4994 49.0588C45.0133 48.6708 45.556 48.3083 46.088 47.9365C46.8085 47.4328 47.1666 47.2426 45.8473 48.0139C42.2674 50.1068 38.7038 52.2188 35.0639 54.2445C29.4682 57.3587 14.0808 67.4618 17.6372 62.7971C23.0644 55.6787 32.3423 50.9245 39.1077 44.7244C40.0289 43.8802 39.9667 43.6663 38.8189 44.3761C35.4317 46.4707 32.0249 48.5377 28.6132 50.6067C26.7144 51.7582 18.5398 56.8012 25.8211 53.2383C34.3346 49.0724 43.0114 44.4752 52.1536 41.2415C60.909 38.1446 25.9258 63.6014 31.983 57.65C36.2006 53.5061 53.225 45.2758 46.9064 46.969C42.4296 48.1686 38.4479 52.6127 35.0158 55.0959C30.9856 58.0117 40.0161 49.2814 40.3593 48.904C42.0397 47.0561 43.6843 45.1884 45.414 43.3699C46.7061 42.0117 42.2066 45.6162 40.6 46.7368C34.2416 51.1718 27.2358 54.5716 20.5256 58.5788C15.3346 61.6788 31.47 53.0193 36.6526 49.9101C37.5798 49.3539 41.0649 46.665 42.7663 46.969C44.7388 47.3214 40.8008 52.0254 40.5519 52.3095C38.7306 54.389 36.5626 56.3206 34.5344 58.2692C32.2931 60.4225 29.7372 62.0164 34.8714 59.0045C42.0039 54.8204 49.9937 50.2336 58.2193 47.5108C59.077 47.2269 57.4037 48.8642 56.8232 49.4458C53.1728 53.1026 49.0153 56.4408 44.7882 59.6624C41.8317 61.9156 38.7642 64.0623 35.6416 66.1639C35.4875 66.2676 30.7597 69.2838 34.1974 66.7444C42.2165 60.8206 52.6406 57.4857 60.867 51.8451C64.5288 49.3343 53.6617 56.9927 50.3725 59.8172C49.3212 60.7199 38.6214 68.0861 42.7663 64.3837C45.1732 62.2339 47.9687 60.355 50.7576 58.5401C52.276 57.552 56.9534 55.192 56.1011 56.6051C54.5027 59.2554 45.5929 64.5189 48.9283 63.3001C52.6244 61.9496 56.1939 57.4032 59.5191 55.3281C64.0761 52.4841 56.0356 60.1892 55.0902 60.9008C53.9185 61.7826 43.0588 69.8305 48.832 65.7769C53.0782 62.7955 65.281 53.4774 61.7817 57.0308C57.7887 61.0855 52.9963 64.0643 48.4469 67.6345C44.0573 71.0792 58.0061 61.3823 62.0705 57.6887C68.5183 51.8293 59.8066 60.0154 58.2674 61.3652C57.0901 62.3977 48.3009 69.1724 54.8013 64.6933C57.876 62.5747 65.8958 58.616 66.6919 55.0959C66.8898 54.2209 64.5879 55.6963 63.6591 56.1795C59.636 58.2721 55.563 60.2953 51.5278 62.3714C50.4875 62.9066 43.9665 67.6074 44.9808 64.1128C45.4321 62.5578 46.2005 61.0406 47.0027 59.585C47.1331 59.3483 49.3184 55.4827 49.3134 55.4829C47.8667 55.5382 44.948 57.8148 43.9698 58.3853C42.499 59.2432 40.951 60.1377 39.4928 61.0169C38.8406 61.4101 37.7769 62.7996 37.5191 62.1779C36.5579 59.8597 51.4924 52.1083 53.8386 50.6841C54.5901 50.2279 55.0264 49.941 54.0311 50.9937C50.8879 54.3185 46.1313 56.5456 41.7554 58.6562C39.4037 59.7905 22.3728 67.7091 33.5235 61.5974C45.1527 55.2233 57.9948 49.9743 70.2543 44.4148C72.3796 43.451 71.7181 44.3679 70.5913 45.6532C66.1931 50.6701 60.5237 54.8848 54.7051 58.811C50.7636 61.4706 46.6682 64.0068 42.5738 66.5122C42.0619 66.8254 39.1608 68.6346 38.0968 69.1051C37.6355 69.309 38.6599 68.3742 39.0596 68.0989C43.0173 65.3718 47.418 63.0187 51.7204 60.6686C53.9097 59.4727 64.5628 52.06 67.7992 53.0061C68.2688 53.1434 58.1291 63.0783 57.1121 64.1902C52.9304 68.762 59.2582 60.398 60.4819 59.3528C63.0338 57.1731 56.4796 63.6811 56.1493 64.345C55.4748 65.7006 59.4775 63.1335 60.9633 62.294C61.5545 61.9599 71.4325 55.9228 71.4578 55.9473C72.0341 56.5032 61.0269 64.8648 60.0005 65.6995C58.5926 66.8444 57.2835 68.0212 55.9567 69.2211C54.1881 70.8206 58.6857 65.5399 60.2412 63.8032C63.7046 59.9362 75.624 49.3096 71.5541 52.7739C69.8059 54.2619 66.4838 55.3509 64.3812 56.1795C56.4334 59.3114 48.2196 61.966 40.0705 64.732C38.1679 65.3778 34.7964 67.9076 34.1974 66.3187C33.1685 63.5892 39.3318 57.6765 40.937 55.8699C43.9489 52.4801 47.4117 49.3791 50.565 46.0789C50.5905 46.0522 54.5633 40.8545 55.042 40.8545C56.5058 40.8545 53.0366 42.5771 51.9129 43.3312C47.8771 46.0401 43.626 48.5379 39.4928 51.1485C38.9599 51.4851 35.9528 53.4266 39.4447 50.9937C45.1948 46.9876 51.4984 43.656 57.9786 40.4675C59.2817 39.8263 77.1072 31.319 67.2215 36.8298C62.7189 39.3397 58.0821 41.6893 53.5979 44.2213C51.5072 45.4018 46.012 48.9051 46.7138 46.9303C49.2104 39.9058 57.1537 35.0308 62.4075 29.3995C62.7864 28.9933 61.2534 29.821 60.7226 30.0961C55.0464 33.0367 49.3068 35.898 43.6329 38.8421C39.4671 41.0036 35.3039 43.1689 31.2127 45.421C27.2161 47.6211 31.4882 45.0049 32.4644 44.4148C45.0622 36.7997 59.4258 31.352 72.0355 23.7494C72.4926 23.4737 72.9037 23.1475 73.3834 22.898C74.2598 22.4421 71.9511 24.1224 71.169 24.6781C63.4726 30.1471 54.2735 34.055 45.3659 38.0681C42.3382 39.4322 39.3776 40.7785 36.4119 42.209C34.7272 43.0215 37.5552 39.1711 38.4337 37.7585C39.5507 35.9628 43.6035 33.6472 41.7073 32.3406C39.7326 30.98 37.2383 34.483 35.0639 35.6301C33.0798 36.6768 28.4397 38.9329 35.5453 35.6688C42.6715 32.3952 50.7407 29.438 57.1121 25.2199C61.6985 22.1836 47.0967 30.376 42.3331 33.2307C40.2145 34.5003 38.0482 35.9361 35.7379 36.9845C32.7428 38.3438 39.7876 32.4538 42.3812 30.6378C48.9042 26.0707 55.8404 21.9095 62.5038 17.4801C62.8637 17.2408 67.2474 14.4052 68.1843 13.3005C68.6276 12.7778 66.6019 13.5242 65.9217 13.8423C56.8306 18.0944 48.3636 23.4669 40.4556 29.0125C36.3329 31.9036 32.4158 33.3237 27.4097 34.9335C21.6782 36.7765 36.0325 27.8185 40.6482 24.5233C41.103 24.1987 45.6547 21.4322 45.6547 20.4212C45.6547 19.7442 44.1603 21.058 43.4884 21.4661C41.8652 22.452 38.8771 24.3943 37.4228 25.336C34.3518 27.3248 31.28 29.3121 28.3243 31.4118C24.7554 33.9473 26.5936 32.6433 29.0946 30.9474C32.3175 28.7621 35.7207 26.7637 38.9633 24.6007C43.5239 21.5585 36.9578 25.1445 36.5563 25.4134C32.3145 28.2551 29.2228 31.5375 25.6285 34.8174C24.4533 35.8897 23.8909 36.4242 26.5432 35.5914C34.9222 32.9602 43.1812 29.8899 51.3834 26.9227C54.7397 25.7085 67.6278 19.4523 56.4381 23.8268C46.9994 27.5167 37.0002 32.8409 30.5388 39.6161C27.5649 42.7344 37.2514 36.5155 37.7598 36.288C41.6741 34.5356 45.752 32.9574 49.8429 31.4892C50.7095 31.1782 53.6557 29.9602 51.7204 31.7988C49.4303 33.9745 41.7304 37.3658 41.0814 40.2353C40.3807 43.3338 58.103 35.327 58.46 35.127C62.1795 33.0425 65.6809 30.7113 69.2915 28.5094C70.6305 27.6928 66.8108 30.333 65.5847 31.257C61.4854 34.3465 57.4191 37.4477 53.0683 40.3127C49.646 42.5663 40.1994 49.4448 41.9961 46.195C43.6505 43.2026 49.6323 39.8048 52.3462 37.8359C60.1362 32.1845 68.1181 26.7064 75.9348 21.0791C82.9229 16.0484 71.6235 24.4082 70.3024 25.4521C63.4079 30.9007 55.9413 36.1737 48.6876 41.3189C40.5612 47.083 80.2377 19.0209 75.8867 27.0001C73.4242 31.516 66.7724 38.1519 61.204 40.3901C55.4425 42.7059 72.0264 34.7384 77.042 31.4892C77.6804 31.0757 78.2954 30.6395 78.9195 30.2122C79.8163 29.598 79.9804 29.4367 78.8714 30.3283C75.0346 33.4126 71.1858 36.4882 67.1252 39.3839C62.8271 42.449 50.5295 51.6151 53.1646 47.5108C57.4268 40.8722 70.7932 36.6552 78.4862 33.192C84.2694 30.5885 72.5048 38.9196 71.2652 39.9257C70.8458 40.2661 62.4986 47.4299 62.5038 47.4334C63.8288 48.321 76.1053 39.9412 77.6679 38.8421C81.51 36.1395 70.0204 44.2811 66.1624 46.969C65.8578 47.1812 63.251 48.8093 66.0661 47.0851C72.947 42.8707 80.222 39.1019 87.5366 35.3979C90.898 33.6957 94.693 32.0979 97.8385 30.0961C100.556 28.3665 92.2002 33.3409 89.4622 35.0496C83.7025 38.644 77.9697 42.1059 73.3353 46.6594C69.2519 50.6715 64.8777 54.28 59.7116 57.4178C58.1086 58.3915 59.3452 56.9697 59.7598 56.6051C62.8968 53.8469 66.6164 51.3782 70.2543 49.0588C72.8673 47.3928 66.0663 52.5255 69.5322 51.8451C74.3025 50.9087 79.0306 48.8616 83.3965 47.1625C87.7806 45.4563 94.9634 43.5132 98.4162 40.5062C102.867 36.6305 87.1883 46.0584 82.2412 49.5232C79.2995 51.5834 74.4598 58.1013 70.5431 58.8884C64.3889 60.1252 78.762 51.0159 83.7817 47.8978C86.7093 46.0791 84.2036 46.9717 82.5782 47.7043C76.3049 50.5315 70.2364 53.679 64.0924 56.6825C56.5821 60.354 58.882 59.7302 64.6219 55.8699C68.931 52.9718 73.1483 49.9915 77.2346 46.8916C79.2042 45.3974 79.7981 44.9082 81.4228 43.6021C81.9202 43.2023 80.4279 44.4019 79.9304 44.8018C75.2071 48.5989 70.7748 52.5752 66.2105 56.489C64.9822 57.5424 63.6051 58.5553 66.7401 57.1856C75.6793 53.2801 84.184 48.6749 92.5431 44.0278C93.6601 43.4069 94.7523 42.7576 95.8648 42.1316C96.3681 41.8483 94.9503 42.7923 94.4687 43.0991C89.494 46.2682 84.4406 49.3463 79.6897 52.7352C76.7163 54.8562 73.8726 57.1047 70.7838 59.1206C66.8778 61.6699 66.9118 60.5723 69.3396 57.3404C71.716 54.177 75.1337 51.041 76.5606 47.4721C78.382 42.9169 63.721 48.1066 63.2259 48.2461C54.9307 50.5822 46.8461 53.309 38.8189 56.1795C38.6686 56.2332 23.8111 61.3912 23.7992 61.133C23.7356 59.7539 30.9317 55.9149 31.5979 55.4829C36.8342 52.0866 41.9817 48.6291 47.0508 45.0727C55.1037 39.423 46.3475 45.1933 42.9589 46.8916C38.9666 48.8925 34.8019 50.6012 30.5869 52.2708C29.1963 52.8216 27.8694 53.5021 26.3987 53.8962C25.8601 54.0405 27.1179 53.1822 27.5541 52.89C30.2534 51.0817 33.1365 49.4988 36.0267 47.8978C40.6257 45.3502 39.8841 45.3479 34.7751 47.5882C28.4944 50.3422 22.3846 53.3414 16.3375 56.4116C15.0726 57.0538 6.32269 62.777 4.15804 61.907C2.90055 61.4015 9.53945 55.4137 10.2237 54.8637C12.4746 53.0542 10.2135 55.9889 9.4053 56.5664C8.78709 57.0082 10.9373 57.1677 11.7642 57.1856C22.1532 57.4114 32.4829 55.9432 42.7663 55.0185C44.9623 54.821 52.8486 53.2772 48.495 56.8373C42.1577 62.0197 34.4204 66.2599 27.3615 70.7691C23.0695 73.5109 18.8119 76.2833 14.7488 79.2443C14.2409 79.6144 10.0122 82.3252 13.6898 81.2567C23.2281 78.4852 30.6492 73.1326 38.6263 68.3311C43.3843 65.4672 48.3751 62.9161 53.646 60.7073C53.7794 60.6514 64.4818 56.7274 64.3812 57.4952C64.0883 59.7324 56.7197 63.859 55.2827 64.7707C48.1557 69.2927 39.9995 72.6668 32.9458 77.2319C32.3617 77.6099 25.2859 83.1956 29.2871 81.1406C34.4018 78.5137 38.9183 76.5766 44.8845 75.8387C48.7354 75.3625 52.5723 74.8431 56.4381 74.4456C59.215 74.16 64.9629 72.7644 67.751 73.5555C69.0509 73.9243 64.116 80.8885 63.4666 81.7211C62.3656 83.1324 56.0517 89.8174 61.1558 87.526C71.7494 82.7702 82.0154 77.484 92.4469 72.5106C110.252 64.0216 128.718 56.2316 146.171 47.2786C147.482 46.6064 150.843 44.027 149.493 44.647C145.996 46.2536 142.263 49.3594 140.25 52.1547C139.553 53.1228 140.445 55.7645 138.854 55.9473C120.062 58.1053 101.308 62.2112 82.6263 65.0029C68.7063 67.0831 54.8266 69.2991 40.937 71.5044C39.3978 71.7488 25.4347 73.9506 22.7401 74.2908C21.3676 74.464 17.6385 74.7099 18.6 73.9038C23.2254 70.0261 31.4938 67.0091 36.9895 64.2676C50.9085 57.3245 64.7986 50.2552 79.1602 43.9117C85.3124 41.1943 91.6149 38.7968 98.0311 36.5202C101.608 35.2509 101.816 35.4429 98.8013 37.5263C86.5103 46.0202 71.3369 51.2586 58.46 59.1206C57.3863 59.7762 56.3346 60.4549 55.2827 61.133C54.4843 61.6477 52.0944 62.335 52.972 62.7584C53.3612 62.9461 53.8769 62.6827 54.32 62.6036C58.2937 61.8937 63.1386 60.6801 66.7401 59.7785C82.9332 55.7248 99.0185 51.3071 114.784 46.2724C123.091 43.6193 131.111 40.8043 139.046 37.5263C141.812 36.3838 145.595 35.8709 147.038 33.6564C147.344 33.1866 145.763 33.9447 145.16 34.1595C141.406 35.4967 132.028 39.3665 129.515 40.3901C114.582 46.4709 99.5522 52.4166 84.6963 58.6175C81.2464 60.0575 71.1853 64.8031 74.5388 63.2227C85.3851 58.1114 96.0764 53.0091 107.274 48.3622C121.591 42.4206 136.186 36.9266 150.504 30.9861C153.704 29.6585 162.768 25.8808 159.169 25.8004C155.99 25.7294 152.671 26.7143 149.733 27.5419C138.817 30.618 128.323 34.6007 117.48 37.8359C93.952 44.8555 68.3038 47.346 43.4403 49.0975C38.4383 49.4498 32.8264 49.9533 27.7467 49.678C23.6544 49.4562 33.9109 45.2123 37.5672 43.7182C49.7719 38.7313 62.4251 34.4753 74.8276 29.8252C81.5566 27.3022 89.5728 24.7644 95.7204 21.1952C103.965 16.4082 76.581 26.7683 67.2696 30.0574C64.051 31.1943 45.0795 39.115 57.9786 32.418C64.5535 29.0045 71.0342 25.4832 77.4272 21.8531C80.2364 20.2579 88.6218 15.7324 85.3221 16.5126C73.1615 19.3878 60.7673 25.5604 50.565 31.4892C41.0526 37.0171 71.0305 22.0836 80.1711 16.1643C85.6066 12.6444 77.5799 15.2456 76.6569 15.5451C67.476 18.5237 58.8471 22.4168 50.1799 26.2261C44.1527 28.8751 34.3113 33.9508 27.0246 33.7338C23.3309 33.6238 38.451 23.2404 39.5891 22.5884C42.5801 20.8749 60.0953 10.7092 46.8101 16.4739C43.6102 17.8624 37.5277 19.6607 35.3046 22.1627C34.5236 23.0417 37.9173 22.9456 39.2521 22.8206C44.7738 22.3034 49.4408 21.2694 54.8495 19.9568C66.5787 17.1103 77.9749 13.452 89.4622 10.0498C94.7295 8.48973 105.286 3.72286 111.414 4.01266C113.737 4.1225 108.233 6.7736 106.359 7.8826C98.9002 12.2975 90.742 15.836 83.0114 19.9181C81.9032 20.5033 66.5955 30.5317 68.9545 30.7152C73.0188 31.0314 78.7342 28.8843 82.0968 27.7741C95.7639 23.2616 108.949 17.6249 121.523 11.4042C123.055 10.6466 124.546 9.83765 126.049 9.04358C126.294 8.91406 130.087 6.68565 124.797 9.81757C117.258 14.2809 109.565 18.402 101.305 21.9692C93.1073 25.5093 67.8312 34.7753 76.7532 32.6502C89.7325 29.5587 102.493 22.7362 113.917 17.0931C114.839 16.6378 115.743 16.159 116.661 15.6999C117.919 15.0711 117.619 15.2414 116.517 15.9708C110.448 19.9888 103.803 23.295 97.0683 26.5357C92.2243 28.8664 82.7981 31.6562 80.6044 36.4428C79.4356 38.9931 109.577 30.4832 109.97 30.367C113.567 29.3022 117.126 28.1513 120.753 27.1549C123.199 26.4832 127.909 24.9801 123.642 27.5419C117.225 31.394 110.155 34.5377 103.712 38.3777C102.324 39.2047 100.234 40.2693 99.2827 41.5124C97.8222 43.4203 104.787 40.6505 107.37 39.8096C114.467 37.4992 121.31 34.7568 128.07 31.8762C137.527 27.8471 125.844 32.6662 124.508 33.2694C109.153 40.2009 93.3213 46.6342 78.2937 54.0123C77.4922 54.4058 76.7053 54.819 75.9348 55.2507C74.7273 55.9272 74.8807 55.972 76.2237 55.4442C85.0373 51.9803 93.3531 47.5024 101.497 43.1378C103.504 42.062 105.476 40.9437 107.467 39.8483C108.738 39.1485 111.803 36.7145 111.414 37.9133C110.031 42.1764 96.1723 47.4722 92.5431 49.1362C82.8166 53.5958 72.6244 57.3349 62.2149 60.6299C59.1094 61.6129 49.5502 63.7599 52.8758 63.5323C75.9006 61.9571 97.2231 54.9033 118.25 47.5882C123.233 45.8548 128.336 44.0593 133.077 41.8994C135.309 40.8825 128.23 43.2726 125.904 44.1439C107.742 50.9492 88.636 58.5336 72.8057 68.4859C70.7719 69.7645 77.0202 66.0867 79.1602 64.9255C89.1405 59.5099 99.572 54.7474 110.018 49.9488C112.159 48.9653 114.309 47.9937 116.421 46.969C118.174 46.118 123.468 44.2479 121.427 44.1052C118.538 43.9033 116.232 46.1844 113.725 47.356C112.821 47.7782 95.2429 56.1776 95.239 56.1795C86.7079 60.238 78.0841 64.1843 69.6766 68.4085C67.166 69.6699 59.9857 73.4805 62.8889 73.0137C71.2259 71.6733 79.9573 68.7556 87.8254 66.4735C109.054 60.316 130.124 53.7007 150.504 45.8854C168.818 38.8624 114.589 61.0896 96.972 69.1825C93.5561 70.7516 84.287 76.2452 86.5738 73.6716C88.0331 72.0292 90.7746 71.4583 92.9283 70.4208C99.1049 67.4454 104.759 64.8413 111.029 61.907C120.822 57.3234 130.627 52.7592 140.154 47.8204C141.8 46.9667 153.161 41.7042 143.235 43.486C133.912 45.1596 124.83 48.1148 115.939 50.8389C97.7978 56.3973 80.1352 62.556 63.0814 70.0338C57.5546 72.4573 51.9982 74.9678 46.5694 77.5415C40.7142 80.3174 58.969 73.047 65.007 70.5369C82.209 63.3859 99.3984 56.1461 116.228 48.4396C121.511 46.0203 137.205 39.1418 131.248 40.1192C122.568 41.5432 112.634 46.6845 104.867 49.6006C90.889 54.8484 76.8574 59.9861 62.7926 65.0803C61.4696 65.5595 57.5713 67.0296 58.9895 66.7831C69.2296 65.0032 79.3788 60.9101 88.5475 57.0308C97.6506 53.1793 106.527 48.8169 114.784 43.873C122.557 39.2191 113.9 42.1478 110.74 43.3312C100.978 46.988 91.4003 51.0508 81.856 55.0572C80.2778 55.7197 59.8808 62.9405 60.0968 65.5447C60.1288 65.9317 61.0685 65.7005 61.541 65.6221C65.0821 65.0344 76.5729 62.0654 78.2937 61.5974C95.8654 56.8184 113.843 51.6177 129.9 44.0278C132.607 42.7481 135.832 40.4848 129.804 42.0542C116.371 45.5508 103.32 51.5389 91.4359 57.5726C87.5365 59.5525 82.0975 62.1672 79.6416 65.6221C78.4727 67.2665 84.0681 64.2692 86.0924 63.3001C99.905 56.6877 143.532 40.0986 129.515 46.4272C118.363 51.4622 107.254 56.5572 96.1055 61.5974C90.8228 63.9857 75.2277 70.9536 69.3396 73.749C68.6081 74.0963 60.1848 78.0976 58.3637 79.6313C55.6833 81.8887 65.8656 77.9541 69.4359 76.7288C83.0029 72.0729 96.5674 67.2619 109.488 61.52C113.228 59.8581 124.326 54.861 120.272 55.9473C114.521 57.4883 108.587 62.2423 103.327 64.6159C91.9815 69.735 56.3002 82.4534 67.6547 77.348C76.116 73.5435 84.5388 69.72 93.1208 66.0865C105.799 60.7186 110.603 58.865 123.064 53.7801C126.405 52.4165 136.68 49.0435 132.981 49.5232C127.058 50.2911 118.703 54.9743 113.773 57.0308C100.056 62.7524 86.261 68.4574 73.0464 74.91C71.0163 75.9013 64.3331 81.7112 64.3331 77.5415" stroke="#0A210F" stroke-opacity="0.8" stroke-width="8" stroke-linecap="round"/>
<path d="M150.979 11C126.126 18.0371 101.042 24.6164 76.9595 34.0709C73.3691 35.4805 69.7502 36.8851 66.3853 38.7706C61.4505 41.5358 66.8952 41.6858 68.7352 41.7613C78.0237 42.1419 87.7721 41.1976 96.933 39.7319C99.2391 39.3629 112.529 34.1694 106.225 41.0136C92.5014 55.914 75.6551 69.1475 59.5495 81.3877C43.2017 93.8121 75.7065 85.0275 81.766 84.058" stroke="#633E29" stroke-width="8" stroke-linecap="round"/>
</svg>
