<svg width="131" height="148" viewBox="0 0 131 148" fill="none" xmlns="http://www.w3.org/2000/svg">
<path d="M99.9788 5C75.1263 12.0371 50.0419 18.6164 25.9595 28.0709C22.3691 29.4805 18.7502 30.8851 15.3853 32.7706C10.4505 35.5358 15.8952 35.6858 17.7352 35.7613C27.0237 36.1419 36.7721 35.1976 45.933 33.7319C48.2391 33.3629 61.5293 28.1694 55.2254 35.0136C41.5014 49.914 24.6551 63.1475 8.5495 75.3877C-7.79835 87.8121 24.7065 79.0275 30.766 78.058" stroke="#64BD49" stroke-width="8" stroke-linecap="round"/>
<path d="M99.9788 5C75.1263 12.0371 50.0419 18.6164 25.9595 28.0709C22.3691 29.4805 18.7502 30.8851 15.3853 32.7706C10.4505 35.5358 15.8952 35.6858 17.7352 35.7613C27.0237 36.1419 36.7721 35.1976 45.933 33.7319C48.2391 33.3629 61.5293 28.1694 55.2254 35.0136C41.5014 49.914 24.6551 63.1475 8.5495 75.3877C-7.79835 87.8121 24.7065 79.0275 30.766 78.058" stroke="#64BD49" stroke-width="8" stroke-linecap="round"/>
<path d="M40.3761 79.9805C29.3536 90.7989 11.2274 124.2 40.3761 124.2" stroke="#64BD49" stroke-width="8" stroke-linecap="round"/>
<path d="M126.44 23.9414C101.587 30.9785 76.5029 37.5578 52.4205 47.0123C48.8301 48.4219 45.2112 49.8265 41.8463 51.712C36.9115 54.4772 42.3561 54.6273 44.1961 54.7027C53.4846 55.0833 63.233 54.139 72.3939 52.6733C74.7 52.3043 87.9902 47.1108 81.6864 53.955C67.9623 68.8554 51.1161 82.0889 35.0104 94.3291C18.6626 106.754 51.1674 97.9689 57.2269 96.9994" stroke="#64BD49" stroke-width="8" stroke-linecap="round"/>
<path d="M126.44 23.9414C101.587 30.9785 76.5029 37.5578 52.4205 47.0123C48.8301 48.4219 45.2112 49.8265 41.8463 51.712C36.9115 54.4772 42.3561 54.6273 44.1961 54.7027C53.4846 55.0833 63.233 54.139 72.3939 52.6733C74.7 52.3043 87.9902 47.1108 81.6864 53.955C67.9623 68.8554 51.1161 82.0889 35.0104 94.3291C18.6626 106.754 51.1674 97.9689 57.2269 96.9994" stroke="#FFFF0B" stroke-width="8" stroke-linecap="round"/>
<path d="M66.8371 98.9219C55.8145 109.74 37.6884 143.141 66.8371 143.141" stroke="#FFFF0B" stroke-width="8" stroke-linecap="round"/>
</svg>
