<svg width="182" height="163" viewBox="0 0 182 163" fill="none" xmlns="http://www.w3.org/2000/svg">
<path d="M177.653 62.8427C177.653 81.7908 167.914 99.9965 150.494 113.612C133.074 127.227 109.338 135.185 84.3038 135.804C59.2693 136.422 71.7138 116.927 16.3402 116.927C-2.21725 104.201 9.21841 81.7504 7.58361 62.8427C5.94881 43.935 -8.62834 30.0518 7.57975 15.6054C23.7879 1.15908 45.0098 7.52628 69.9375 5.6729C94.8652 3.81952 121.545 -6.10921 141.161 5.67361C141.161 15.6054 173.568 34.5474 176.831 53.334L81.153 62.8427H177.653Z" fill="#283035"/>
<path d="M104.691 5.8418C85.7722 19.7886 59.8436 33.4622 44.5748 50.7723C43.9866 51.4391 55.1566 44.6188 58.5526 42.9457C72.5688 36.0403 88.2256 30.4596 101.395 22.4613C116.454 13.3153 83.8752 33.4181 81.5081 34.636C66.8374 42.1843 19.4901 59.5468 35.0289 53.3812C44.1469 49.7633 52.7652 45.4224 62.1891 42.366C68.7435 40.2402 115.811 24.2144 95.2586 41.6896C91.2477 45.0999 76.3907 55.0892 91.2812 50.8689C115.737 43.9378 137.441 31.293 161.398 24.1039C173.008 20.6196 142.411 37.4923 132.192 43.3322C114.929 53.1978 94.9318 59.2852 74.6896 62.8504C62.0608 65.0747 57.2927 66.2566 70.5985 59.4685C81.2188 54.0505 115.936 45.1481 103.554 44.8782C92.1488 44.6295 82.0849 50.8363 71.1667 51.3521C57.6552 51.9903 97.3736 42.3646 105.827 33.3799C111.918 26.9066 89.6507 42.6379 81.5081 47.1972C80.1138 47.9779 105.462 42.0886 110.6 40.7233C121.497 37.8281 135.072 33.49 116.055 40.2402C109.616 42.5259 102.999 44.3902 96.6223 46.8107C91.1908 48.8724 83.3164 54.2113 77.3033 54.6373C65.2939 55.4882 96.1502 41.4485 107.191 37.3415C122.077 31.804 78.8362 50.871 65.1438 58.309C57.666 62.3712 67.2349 58.2866 67.4166 58.2124C79.5244 53.2669 91.651 48.5126 104.236 44.4917C111.641 42.1258 138.637 33.0329 120.146 44.8782C114.5 48.4952 108.672 51.8796 102.873 55.3137C102.677 55.4296 88.7007 64.3964 90.9403 64.3964C98.5261 64.3964 108.654 60.6551 115.6 58.9854C133.078 54.7844 150.544 50.5693 168.102 46.6175C170.619 46.051 177.874 44.2795 175.83 45.6512C166.629 51.8278 155.304 56.3309 145.147 61.2078C135.997 65.6013 127.04 69.9842 118.441 75.1218C116.287 76.4087 108.108 80.3131 116.509 75.6049C125.649 70.4829 135.555 66.318 145.602 62.6572C155.731 58.966 183.448 46.1896 176.966 53.7677C171.225 60.48 153.838 67.1421 146.397 71.1601C130.722 79.6239 115.032 88.0645 99.4633 96.6691C92.6907 100.412 82.4601 107.973 98.3269 103.433C108.451 100.536 117.495 95.5101 127.419 92.2243C136.742 89.1377 146.039 89.704 155.829 89.3256" stroke="white" stroke-width="8" stroke-linecap="round"/>
<path d="M118.979 82C94.1263 89.0371 69.0419 95.6164 44.9595 105.071C41.3691 106.481 37.7502 107.885 34.3853 109.771C29.4505 112.536 34.8952 112.686 36.7352 112.761C46.0237 113.142 55.7721 112.198 64.933 110.732C67.2391 110.363 80.5293 105.169 74.2254 112.014C60.5014 126.914 43.6551 140.147 27.5495 152.388C11.2017 164.812 43.7065 156.028 49.766 155.058" stroke="#283035" stroke-width="8" stroke-linecap="round"/>
<path d="M118.979 82C94.1263 89.0371 69.0419 95.6164 44.9595 105.071C41.3691 106.481 37.7502 107.885 34.3853 109.771C29.4505 112.536 34.8952 112.686 36.7352 112.761C46.0237 113.142 55.7721 112.198 64.933 110.732C67.2391 110.363 80.5293 105.169 74.2254 112.014C60.5014 126.914 43.6551 140.147 27.5495 152.388C11.2017 164.812 43.7065 156.028 49.766 155.058" stroke="#C72931" stroke-width="8" stroke-linecap="round"/>
</svg>
