<svg width="131" height="147" viewBox="0 0 131 147" fill="none" xmlns="http://www.w3.org/2000/svg">
<path d="M99.9788 4C75.1263 11.0371 50.0419 17.6164 25.9595 27.0709C22.3691 28.4805 18.7502 29.8851 15.3853 31.7706C10.4505 34.5358 15.8952 34.6858 17.7352 34.7613C27.0237 35.1419 36.7721 34.1976 45.933 32.7319C48.2391 32.3629 61.5293 27.1694 55.2254 34.0136C41.5014 48.914 24.6551 62.1475 8.5495 74.3877C-7.79835 86.8121 24.7065 78.0275 30.766 77.058" stroke="#283035" stroke-width="8" stroke-linecap="round"/>
<path d="M99.9788 4C75.1263 11.0371 50.0419 17.6164 25.9595 27.0709C22.3691 28.4805 18.7502 29.8851 15.3853 31.7706C10.4505 34.5358 15.8952 34.6858 17.7352 34.7613C27.0237 35.1419 36.7721 34.1976 45.933 32.7319C48.2391 32.3629 61.5293 27.1694 55.2254 34.0136C41.5014 48.914 24.6551 62.1475 8.5495 74.3877C-7.79835 86.8121 24.7065 78.0275 30.766 77.058" stroke="#283035" stroke-width="8" stroke-linecap="round"/>
<path d="M40.3761 78.9805C29.3536 89.7989 11.2274 123.2 40.3761 123.2" stroke="#283035" stroke-width="8" stroke-linecap="round"/>
<path d="M126.44 22.9414C101.587 29.9785 76.5029 36.5578 52.4205 46.0123C48.8301 47.4219 45.2112 48.8265 41.8463 50.712C36.9115 53.4772 42.3561 53.6273 44.1961 53.7027C53.4846 54.0833 63.233 53.139 72.3939 51.6733C74.7 51.3043 87.9902 46.1108 81.6864 52.955C67.9623 67.8554 51.1161 81.0889 35.0104 93.3291C18.6626 105.754 51.1674 96.9689 57.2269 95.9994" stroke="#283035" stroke-width="8" stroke-linecap="round"/>
<path d="M126.44 22.9414C101.587 29.9785 76.5029 36.5578 52.4205 46.0123C48.8301 47.4219 45.2112 48.8265 41.8463 50.712C36.9115 53.4772 42.3561 53.6273 44.1961 53.7027C53.4846 54.0833 63.233 53.139 72.3939 51.6733C74.7 51.3043 87.9902 46.1108 81.6864 52.955C67.9623 67.8554 51.1161 81.0889 35.0104 93.3291C18.6626 105.754 51.1674 96.9689 57.2269 95.9994" stroke="#C72931" stroke-width="8" stroke-linecap="round"/>
<path d="M66.8371 97.9219C55.8145 108.74 37.6884 142.141 66.8371 142.141" stroke="#C72931" stroke-width="8" stroke-linecap="round"/>
</svg>
