<svg width="723" height="763" viewBox="0 0 723 763" fill="none" xmlns="http://www.w3.org/2000/svg">
<path d="M248.193 763C259.368 757.793 267.196 745.761 267.196 731.756V639.861C267.196 636.508 267.447 633.02 267.84 629.48C267.62 629.548 267.416 629.599 267.196 629.65C267.196 629.65 220.043 629.65 210.613 629.65C187.037 629.65 166.604 619.44 157.174 599.019C146.172 576.896 141.457 539.457 113.165 519.036C108.45 515.633 111.593 510.527 121.024 510.527C130.454 512.229 150.887 525.843 163.461 544.562C177.607 563.282 191.752 578.598 216.9 578.598C255.989 578.598 276.94 576.47 289.546 569.153C304.226 545.515 324.548 527.545 345.783 527.545V527.119C256.696 524.022 199.784 491.961 173.284 442.457C115.68 443.172 65.5258 449.349 36.9044 454.488C35.9928 448.924 35.207 443.325 34.5311 437.692C62.7753 432.655 110.65 426.682 165.693 425.542C163.932 420.845 162.408 416.029 161.119 411.094C105.935 408.064 58.3115 410.43 32.4407 412.744C32.1263 407.094 31.702 401.462 31.6391 395.744C57.5571 393.446 103.892 391.149 157.661 393.855C156.419 385.346 155.618 376.65 155.618 367.597C155.618 338.667 165.048 308.035 182.337 282.509C174.479 253.579 163.477 192.316 185.481 170.193C227.918 170.193 257.781 192.316 271.927 205.93C298.63 194 328.493 187.193 361.5 187.193C394.507 187.193 424.37 194 449.517 205.913C463.663 192.299 493.526 170.176 535.963 170.176C559.539 194 546.965 255.264 539.106 282.492C556.396 308.018 565.826 336.948 564.254 367.58C564.254 375.816 563.547 383.763 562.525 391.557C617.521 388.63 665.113 390.979 691.471 393.293C691.439 399.028 690.952 404.627 690.669 410.294C664.406 407.945 615.619 405.529 559.288 408.779C557.889 414.497 556.191 420.062 554.179 425.456C609.913 426.239 658.936 432.076 688.532 437.182C687.856 442.831 687.07 448.43 686.158 453.978C656.107 448.771 604.884 442.678 546.604 442.372C520.434 491.348 464.559 523.29 377.217 527.017V527.545C418.083 527.545 455.804 593.913 455.804 639.861V731.756C455.804 745.761 463.632 757.793 474.807 763C618.794 711.403 723 564.371 723 391.404C723 175.587 560.844 0 361.5 0C162.156 0 0 175.587 0 391.404C0 564.371 104.206 711.403 248.193 763Z" fill="#071D88"/>
</svg>
