<svg width="96" height="75" viewBox="0 0 96 75" fill="none" xmlns="http://www.w3.org/2000/svg">
<path d="M32.9551 75C34.439 74.4881 35.4783 73.3055 35.4783 71.9288V62.8959C35.4783 62.5664 35.5117 62.2234 35.5638 61.8755C35.5346 61.8822 35.5075 61.8872 35.4783 61.8922C35.4783 61.8922 29.2174 61.8922 27.9652 61.8922C24.8348 61.8922 22.1217 60.8886 20.8696 58.8813C19.4087 56.7067 18.7826 53.0266 15.0261 51.0193C14.4 50.6847 14.8174 50.1829 16.0696 50.1829C17.3217 50.3502 20.0348 51.6884 21.7043 53.5284C23.5826 55.3685 25.4609 56.8739 28.8 56.8739C33.9903 56.8739 36.7722 56.6648 38.4459 55.9456C40.3951 53.6221 43.0936 51.8557 45.913 51.8557V51.8138C34.0842 51.5094 26.5273 48.3579 23.0087 43.4918C15.36 43.5621 8.70052 44.1693 4.90017 44.6745C4.77913 44.1275 4.67478 43.5771 4.58504 43.0235C8.3353 42.5283 14.6922 41.9412 22.0007 41.8291C21.767 41.3674 21.5645 40.894 21.3934 40.4089C14.0661 40.1112 7.74261 40.3437 4.30748 40.5712C4.26574 40.0158 4.20939 39.4622 4.20104 38.9001C7.64243 38.6743 13.7948 38.4485 20.9343 38.7144C20.7694 37.878 20.663 37.0233 20.663 36.1334C20.663 33.2897 21.9151 30.2787 24.2108 27.7695C23.1673 24.9258 21.7064 18.9039 24.6282 16.7293C30.263 16.7293 34.2282 18.9039 36.1064 20.2421C39.6522 19.0695 43.6174 18.4004 48 18.4004C52.3826 18.4004 56.3478 19.0695 59.687 20.2404C61.5652 18.9022 65.5304 16.7276 71.1652 16.7276C74.2956 19.0695 72.6261 25.0914 71.5826 27.7679C73.8783 30.277 75.1304 33.1207 74.9217 36.1317C74.9217 36.9413 74.8278 37.7225 74.6922 38.4886C81.9944 38.2009 88.3137 38.4317 91.8136 38.6592C91.8094 39.2229 91.7447 39.7733 91.7071 40.3303C88.2198 40.0995 81.7419 39.8619 74.2623 40.1814C74.0765 40.7435 73.8511 41.2905 73.584 41.8207C80.9843 41.8977 87.4936 42.4715 91.4233 42.9733C91.3336 43.5286 91.2292 44.079 91.1082 44.6243C87.1179 44.1124 80.3165 43.5136 72.5781 43.4835C69.1033 48.2977 61.6842 51.4375 50.087 51.8038V51.8557C55.513 51.8557 60.5217 58.3794 60.5217 62.8959V71.9288C60.5217 73.3055 61.561 74.4881 63.0449 75C82.1635 69.9282 96 55.4755 96 38.4735C96 17.2596 74.4689 0 48 0C21.5311 0 0 17.2596 0 38.4735C0 55.4755 13.8365 69.9282 32.9551 75Z" fill="#FFFBDC"/>
</svg>
