<svg width="42" height="43" viewBox="0 0 42 43" fill="none" xmlns="http://www.w3.org/2000/svg">
<path d="M14.4179 43C15.067 42.7065 15.5217 42.0285 15.5217 41.2392V36.0603C15.5217 35.8714 15.5363 35.6748 15.5592 35.4753C15.5464 35.4791 15.5345 35.482 15.5217 35.4849C15.5217 35.4849 12.7826 35.4849 12.2348 35.4849C10.8652 35.4849 9.67826 34.9094 9.13043 33.7586C8.4913 32.5118 8.21739 30.4019 6.57391 29.251C6.3 29.0592 6.48261 28.7715 7.03043 28.7715C7.57826 28.8674 8.76522 29.6347 9.49565 30.6896C10.3174 31.7446 11.1391 32.6077 12.6 32.6077C14.8707 32.6077 16.0878 32.4878 16.8201 32.0755C17.6729 30.7433 18.8534 29.7306 20.087 29.7306V29.7066C14.9118 29.532 11.6057 27.7252 10.0663 24.9353C6.72 24.9756 3.80648 25.3237 2.14383 25.6134C2.09087 25.2998 2.04522 24.9842 2.00596 24.6668C3.6467 24.3829 6.42783 24.0463 9.6253 23.982C9.52304 23.7173 9.43448 23.4459 9.35961 23.1678C6.15391 22.9971 3.38739 23.1304 1.88452 23.2608C1.86626 22.9424 1.84161 22.625 1.83796 22.3027C3.34357 22.1733 6.03522 22.0438 9.15874 22.1963C9.08661 21.7167 9.04004 21.2267 9.04004 20.7165C9.04004 19.0861 9.58787 17.3598 10.5922 15.9212C10.1357 14.2908 9.49657 10.8382 10.7748 9.59147C13.24 9.59147 14.9748 10.8382 15.7966 11.6055C17.3478 10.9332 19.0826 10.5496 21 10.5496C22.9174 10.5496 24.6522 10.9332 26.113 11.6045C26.9348 10.8373 28.6696 9.59051 31.1348 9.59051C32.5043 10.9332 31.7739 14.3858 31.3174 15.9202C32.3217 17.3588 32.8696 18.9892 32.7783 20.7155C32.7783 21.1797 32.7372 21.6276 32.6778 22.0668C35.8726 21.9018 38.6373 22.0342 40.1684 22.1646C40.1666 22.4878 40.1383 22.8034 40.1219 23.1227C38.5962 22.9904 35.7621 22.8542 32.4897 23.0374C32.4085 23.3596 32.3099 23.6732 32.193 23.9772C35.4307 24.0213 38.2784 24.3503 39.9977 24.638C39.9584 24.9564 39.9128 25.2719 39.8598 25.5846C38.1141 25.2911 35.1385 24.9478 31.7529 24.9305C30.2327 27.6907 26.9868 29.4908 21.913 29.7008V29.7306C24.287 29.7306 26.4783 33.4709 26.4783 36.0603V41.2392C26.4783 42.0285 26.933 42.7065 27.5821 43C35.9465 40.0922 42 31.806 42 22.0582C42 9.89549 32.5801 0 21 0C9.41987 0 0 9.89549 0 22.0582C0 31.806 6.05348 40.0922 14.4179 43Z" fill="#FE5455"/>
</svg>
