<svg width="1056" height="1033" viewBox="0 0 1056 1033" fill="none" xmlns="http://www.w3.org/2000/svg">
<path d="M362.506 1033C378.829 1025.95 390.261 1009.66 390.261 990.699V866.286C390.261 861.747 390.628 857.024 391.202 852.232C390.881 852.324 390.582 852.393 390.261 852.462C390.261 852.462 321.391 852.462 307.617 852.462C273.183 852.462 243.339 838.639 229.565 810.991C213.496 781.04 206.609 730.353 165.287 702.705C158.4 698.098 162.991 691.186 176.765 691.186C190.539 693.49 220.383 711.921 238.748 737.265C259.409 762.608 280.07 783.344 316.8 783.344C373.893 783.344 404.494 780.464 422.905 770.557C444.346 738.555 474.029 714.225 505.043 714.225V713.649C374.926 709.456 291.8 666.05 253.096 599.028C168.96 599.995 95.7057 608.359 53.9019 615.317C52.5704 607.783 51.4226 600.203 50.4355 592.576C91.6884 585.757 161.614 577.67 242.008 576.126C239.437 569.767 237.21 563.247 235.327 556.566C154.727 552.465 85.1687 555.667 47.3823 558.801C46.9231 551.151 46.3033 543.525 46.2115 535.784C84.0668 532.674 151.743 529.563 230.277 533.227C228.463 521.707 227.293 509.934 227.293 497.677C227.293 458.51 241.066 417.038 266.319 382.479C254.84 343.312 238.771 260.37 270.91 230.418C332.893 230.418 376.51 260.37 397.171 278.801C436.174 262.651 479.791 253.435 528 253.435C576.209 253.435 619.826 262.651 656.557 278.778C677.217 260.347 720.835 230.395 782.817 230.395C817.252 262.651 798.887 345.593 787.409 382.456C812.661 417.015 826.435 456.183 824.139 497.654C824.139 508.805 823.106 519.564 821.614 530.116C901.939 526.154 971.451 529.333 1009.95 532.466C1009.9 540.231 1009.19 547.811 1008.78 555.483C970.418 552.303 899.161 549.032 816.885 553.432C814.842 561.174 812.362 568.708 809.424 576.011C890.828 577.071 962.429 584.973 1005.66 591.885C1004.67 599.534 1003.52 607.114 1002.19 614.625C958.297 607.575 883.482 599.327 798.359 598.912C760.136 665.22 678.526 708.465 550.957 713.511V714.225C610.643 714.225 665.739 804.079 665.739 866.286V990.699C665.739 1009.66 677.171 1025.95 693.494 1033C903.798 963.144 1056 764.083 1056 529.909C1056 237.722 819.158 0 528 0C236.842 0 0 237.722 0 529.909C0 764.083 152.202 963.144 362.506 1033Z" fill="#ADACAA"/>
</svg>
