<svg width="42" height="43" viewBox="0 0 42 43" fill="none" xmlns="http://www.w3.org/2000/svg">
<path d="M37 0H5C2.24 0 0 2.29333 0 5.11905V37.881C0 40.7067 2.24 43 5 43H37C39.76 43 42 40.7067 42 37.881V5.11905C42 2.29333 39.76 0 37 0ZM13 16.381V35.8333H7V16.381H13ZM7 10.7193C7 9.28595 8.2 8.19048 10 8.19048C11.8 8.19048 12.93 9.28595 13 10.7193C13 12.1526 11.88 13.3095 10 13.3095C8.2 13.3095 7 12.1526 7 10.7193ZM35 35.8333H29C29 35.8333 29 26.3529 29 25.5952C29 23.5476 28 21.5 25.5 21.459H25.42C23 21.459 22 23.5681 22 25.5952C22 26.5269 22 35.8333 22 35.8333H16V16.381H22V19.0019C22 19.0019 23.93 16.381 27.81 16.381C31.78 16.381 35 19.176 35 24.8376V35.8333Z" fill="#FE5455"/>
</svg>
