<svg width="91" height="80" viewBox="0 0 91 80" fill="none" xmlns="http://www.w3.org/2000/svg">
<path d="M80.1667 0H10.8333C4.85333 0 0 4.26667 0 9.52381V70.4762C0 75.7333 4.85333 80 10.8333 80H80.1667C86.1467 80 91 75.7333 91 70.4762V9.52381C91 4.26667 86.1467 0 80.1667 0ZM28.1667 30.4762V66.6667H15.1667V30.4762H28.1667ZM15.1667 19.9429C15.1667 17.2762 17.7667 15.2381 21.6667 15.2381C25.5667 15.2381 28.015 17.2762 28.1667 19.9429C28.1667 22.6095 25.74 24.7619 21.6667 24.7619C17.7667 24.7619 15.1667 22.6095 15.1667 19.9429ZM75.8333 66.6667H62.8333C62.8333 66.6667 62.8333 49.0286 62.8333 47.619C62.8333 43.8095 60.6667 40 55.25 39.9238H55.0767C49.8333 39.9238 47.6667 43.8476 47.6667 47.619C47.6667 49.3524 47.6667 66.6667 47.6667 66.6667H34.6667V30.4762H47.6667V35.3524C47.6667 35.3524 51.8483 30.4762 60.255 30.4762C68.8567 30.4762 75.8333 35.6762 75.8333 46.2095V66.6667Z" fill="#FFFBDC"/>
</svg>
