<svg width="841" height="813" viewBox="0 0 841 813" fill="none" xmlns="http://www.w3.org/2000/svg">
<path d="M740.881 0H100.119C44.8533 0 0 43.36 0 96.7857V716.214C0 769.64 44.8533 813 100.119 813H740.881C796.147 813 841 769.64 841 716.214V96.7857C841 43.36 796.147 0 740.881 0ZM260.31 309.714V677.5H140.167V309.714H260.31ZM140.167 202.669C140.167 175.569 164.195 154.857 200.238 154.857C236.281 154.857 258.908 175.569 260.31 202.669C260.31 229.769 237.883 251.643 200.238 251.643C164.195 251.643 140.167 229.769 140.167 202.669ZM700.833 677.5H580.69C580.69 677.5 580.69 498.253 580.69 483.929C580.69 445.214 560.667 406.5 510.607 405.726H509.005C460.548 405.726 440.524 445.601 440.524 483.929C440.524 501.544 440.524 677.5 440.524 677.5H320.381V309.714H440.524V359.269C440.524 359.269 479.17 309.714 556.862 309.714C636.357 309.714 700.833 362.559 700.833 469.604V677.5Z" fill="#FEFAE0"/>
</svg>
