<svg width="1170" height="875" viewBox="0 0 1170 875" fill="none" xmlns="http://www.w3.org/2000/svg">
<path d="M1030.71 0H139.286C62.4 0 0 46.6667 0 104.167V770.833C0 828.333 62.4 875 139.286 875H1030.71C1107.6 875 1170 828.333 1170 770.833V104.167C1170 46.6667 1107.6 0 1030.71 0ZM362.143 333.333V729.167H195V333.333H362.143ZM195 218.125C195 188.958 228.429 166.667 278.571 166.667C328.714 166.667 360.193 188.958 362.143 218.125C362.143 247.292 330.943 270.833 278.571 270.833C228.429 270.833 195 247.292 195 218.125ZM975 729.167H807.857C807.857 729.167 807.857 536.25 807.857 520.833C807.857 479.167 780 437.5 710.357 436.667H708.129C640.714 436.667 612.857 479.583 612.857 520.833C612.857 539.792 612.857 729.167 612.857 729.167H445.714V333.333H612.857V386.667C612.857 386.667 666.621 333.333 774.707 333.333C885.3 333.333 975 390.208 975 505.417V729.167Z" fill="#ADACAA"/>
</svg>
