<svg width="199" height="165" viewBox="0 0 199 165" fill="none" xmlns="http://www.w3.org/2000/svg">
<rect x="4.5" y="31.5" width="193" height="104" rx="6.5" fill="#354249" stroke="#303A40" stroke-width="3"/>
<path d="M32.304 38.824C29.04 42.248 24.688 43.96 19.248 43.96C13.808 43.96 9.456 42.248 6.192 38.824C2.928 35.368 1.296 31.16 1.296 26.2C1.296 21.24 2.928 17.048 6.192 13.624C9.456 10.168 13.808 8.44 19.248 8.44C24.688 8.44 29.04 10.168 32.304 13.624C35.568 17.048 37.2 21.24 37.2 26.2C37.2 31.16 35.568 35.368 32.304 38.824ZM19.248 37C22.32 37 24.72 35.976 26.448 33.928C28.208 31.848 29.088 29.272 29.088 26.2C29.088 23.128 28.208 20.568 26.448 18.52C24.72 16.44 22.32 15.4 19.248 15.4C16.144 15.4 13.712 16.44 11.952 18.52C10.224 20.568 9.376 23.128 9.408 26.2C9.376 29.272 10.224 31.848 11.952 33.928C13.712 35.976 16.144 37 19.248 37ZM51.3015 43V9.4H59.0775V36.088H71.5575V43H51.3015ZM86.2609 43V9.4H94.0369V36.088H106.517V43H86.2609ZM65.4398 98L64.2878 93.92H52.3838L51.2318 98H43.0238L54.3998 64.4H62.2238L73.6478 98H65.4398ZM54.1118 87.824H62.5598L58.3358 72.896L54.1118 87.824ZM107.43 98L106.278 93.92H94.3744L93.2224 98H85.0144L96.3904 64.4H104.214L115.638 98H107.43ZM96.1024 87.824H104.55L100.326 72.896L96.1024 87.824ZM63.9998 135.816C66.0158 136.008 67.6638 136.808 68.9438 138.216C70.2558 139.592 70.9118 141.416 70.9118 143.688C70.9118 146.568 69.9518 148.84 68.0318 150.504C66.1118 152.168 63.4878 153 60.1598 153H45.8078V119.4H59.6318C62.9598 119.4 65.5838 120.184 67.5038 121.752C69.4558 123.288 70.4318 125.416 70.4318 128.136C70.4318 130.28 69.8558 132.008 68.7038 133.32C67.5518 134.6 65.9838 135.432 63.9998 135.816ZM57.9038 125.016H53.5838V133.176H57.9038C59.3758 133.176 60.5278 132.824 61.3598 132.12C62.2238 131.384 62.6558 130.376 62.6558 129.096C62.6558 127.816 62.2398 126.824 61.4078 126.12C60.5758 125.384 59.4078 125.016 57.9038 125.016ZM58.4318 147.096C59.8718 147.096 61.0078 146.712 61.8398 145.944C62.6718 145.144 63.0878 144.056 63.0878 142.68C63.0878 141.432 62.6558 140.44 61.7918 139.704C60.9598 138.936 59.8398 138.552 58.4318 138.552H53.5838V147.096H58.4318ZM101.16 153.96C95.7196 153.96 91.3516 152.312 88.0556 149.016C84.7596 145.688 83.1116 141.416 83.1116 136.2C83.1116 130.984 84.7596 126.728 88.0556 123.432C91.3516 120.104 95.7196 118.44 101.16 118.44C106.024 118.44 109.976 119.64 113.016 122.04C116.088 124.408 117.848 127.592 118.296 131.592H110.04C109.592 129.672 108.6 128.168 107.064 127.08C105.528 125.96 103.576 125.4 101.208 125.4C98.0716 125.4 95.6236 126.376 93.8636 128.328C92.1036 130.248 91.2236 132.872 91.2236 136.2C91.2236 139.528 92.1036 142.168 93.8636 144.12C95.6236 146.04 98.0716 147 101.208 147C103.576 147 105.528 146.456 107.064 145.368C108.6 144.248 109.592 142.728 110.04 140.808H118.296C117.848 144.808 116.088 148.008 113.016 150.408C109.976 152.776 106.024 153.96 101.16 153.96Z" fill="#C72931"/>
<path d="M32.304 38.824L33.0278 39.514L33.031 39.5106L32.304 38.824ZM6.192 38.824L5.46498 39.5106L5.46818 39.514L6.192 38.824ZM6.192 13.624L6.91582 14.314L6.91901 14.3106L6.192 13.624ZM32.304 13.624L31.577 14.3106L31.5802 14.314L32.304 13.624ZM26.448 33.928L25.6846 33.2821L25.6837 33.2831L26.448 33.928ZM26.448 18.52L25.6788 19.159L25.6841 19.1654L25.6896 19.1718L26.448 18.52ZM11.952 18.52L11.1886 17.8741L11.1877 17.8751L11.952 18.52ZM9.408 26.2L10.4079 26.2104L10.4081 26.2L10.4079 26.1896L9.408 26.2ZM11.952 33.928L11.1828 34.567L11.1881 34.5734L11.1936 34.5798L11.952 33.928ZM31.5802 38.134C28.5338 41.3298 24.4593 42.96 19.248 42.96V44.96C24.9167 44.96 29.5462 43.1662 33.0278 39.514L31.5802 38.134ZM19.248 42.96C14.0367 42.96 9.96225 41.3298 6.91582 38.134L5.46818 39.514C8.94976 43.1662 13.5793 44.96 19.248 44.96V42.96ZM6.91901 38.1374C3.83856 34.8757 2.296 30.9169 2.296 26.2H0.296C0.296 31.4031 2.01744 35.8603 5.46499 39.5106L6.91901 38.1374ZM2.296 26.2C2.296 21.4832 3.83838 17.5423 6.91582 14.314L5.46818 12.934C2.01762 16.5537 0.296 20.9968 0.296 26.2H2.296ZM6.91901 14.3106C9.96616 11.0842 14.0396 9.44 19.248 9.44V7.44C13.5764 7.44 8.94584 9.25176 5.46499 12.9374L6.91901 14.3106ZM19.248 9.44C24.4564 9.44 28.5298 11.0842 31.577 14.3106L33.031 12.9374C29.5502 9.25176 24.9196 7.44 19.248 7.44V9.44ZM31.5802 14.314C34.6576 17.5423 36.2 21.4832 36.2 26.2H38.2C38.2 20.9968 36.4784 16.5537 33.0278 12.934L31.5802 14.314ZM36.2 26.2C36.2 30.9169 34.6574 34.8757 31.577 38.1374L33.031 39.5106C36.4786 35.8603 38.2 31.4031 38.2 26.2H36.2ZM19.248 38C22.5665 38 25.2653 36.8805 27.2123 34.5729L25.6837 33.2831C24.1747 35.0715 22.0735 36 19.248 36V38ZM27.2114 34.5739C29.1437 32.2903 30.088 29.4764 30.088 26.2H28.088C28.088 29.0676 27.2723 31.4057 25.6846 33.2821L27.2114 34.5739ZM30.088 26.2C30.088 22.9239 29.1437 20.1225 27.2064 17.8682L25.6896 19.1718C27.2723 21.0135 28.088 23.3321 28.088 26.2H30.088ZM27.2172 17.881C25.272 15.5395 22.5719 14.4 19.248 14.4V16.4C22.0681 16.4 24.168 17.3405 25.6788 19.159L27.2172 17.881ZM19.248 14.4C15.8956 14.4 13.1663 15.5368 11.1886 17.8741L12.7154 19.1659C14.2577 17.3432 16.3924 16.4 19.248 16.4V14.4ZM11.1877 17.8751C9.28273 20.1329 8.37395 22.9361 8.40805 26.2104L10.4079 26.1896C10.3781 23.3199 11.1653 21.0031 12.7163 19.1649L11.1877 17.8751ZM8.40805 26.1896C8.37394 29.4643 9.28282 32.28 11.1828 34.567L12.7212 33.289C11.1652 31.416 10.3781 29.0797 10.4079 26.2104L8.40805 26.1896ZM11.1936 34.5798C13.173 36.8831 15.901 38 19.248 38V36C16.387 36 14.251 35.0689 12.7104 33.2762L11.1936 34.5798ZM51.3015 43H50.3015V44H51.3015V43ZM51.3015 9.4V8.4H50.3015V9.4H51.3015ZM59.0775 9.4H60.0775V8.4H59.0775V9.4ZM59.0775 36.088H58.0775V37.088H59.0775V36.088ZM71.5575 36.088H72.5575V35.088H71.5575V36.088ZM71.5575 43V44H72.5575V43H71.5575ZM52.3015 43V9.4H50.3015V43H52.3015ZM51.3015 10.4H59.0775V8.4H51.3015V10.4ZM58.0775 9.4V36.088H60.0775V9.4H58.0775ZM59.0775 37.088H71.5575V35.088H59.0775V37.088ZM70.5575 36.088V43H72.5575V36.088H70.5575ZM71.5575 42H51.3015V44H71.5575V42ZM86.2609 43H85.2609V44H86.2609V43ZM86.2609 9.4V8.4H85.2609V9.4H86.2609ZM94.0369 9.4H95.0369V8.4H94.0369V9.4ZM94.0369 36.088H93.0369V37.088H94.0369V36.088ZM106.517 36.088H107.517V35.088H106.517V36.088ZM106.517 43V44H107.517V43H106.517ZM87.2609 43V9.4H85.2609V43H87.2609ZM86.2609 10.4H94.0369V8.4H86.2609V10.4ZM93.0369 9.4V36.088H95.0369V9.4H93.0369ZM94.0369 37.088H106.517V35.088H94.0369V37.088ZM105.517 36.088V43H107.517V36.088H105.517ZM106.517 42H86.2609V44H106.517V42ZM65.4398 98L64.4774 98.2717L64.683 99H65.4398V98ZM64.2878 93.92L65.2501 93.6483L65.0445 92.92H64.2878V93.92ZM52.3838 93.92V92.92H51.627L51.4214 93.6483L52.3838 93.92ZM51.2318 98V99H51.9885L52.1941 98.2717L51.2318 98ZM43.0238 98L42.0766 97.6793L41.6294 99H43.0238V98ZM54.3998 64.4V63.4H53.6826L53.4526 64.0793L54.3998 64.4ZM62.2238 64.4L63.1705 64.0781L62.94 63.4H62.2238V64.4ZM73.6478 98V99H75.044L74.5945 97.6781L73.6478 98ZM54.1118 87.824L53.1495 87.5517L52.7895 88.824H54.1118V87.824ZM62.5598 87.824V88.824H63.882L63.522 87.5517L62.5598 87.824ZM58.3358 72.896L59.298 72.6237L58.3358 69.2232L57.3735 72.6237L58.3358 72.896ZM66.4021 97.7283L65.2501 93.6483L63.3254 94.1917L64.4774 98.2717L66.4021 97.7283ZM64.2878 92.92H52.3838V94.92H64.2878V92.92ZM51.4214 93.6483L50.2694 97.7283L52.1941 98.2717L53.3461 94.1917L51.4214 93.6483ZM51.2318 97H43.0238V99H51.2318V97ZM43.9709 98.3207L55.3469 64.7207L53.4526 64.0793L42.0766 97.6793L43.9709 98.3207ZM54.3998 65.4H62.2238V63.4H54.3998V65.4ZM61.277 64.7219L72.701 98.3219L74.5945 97.6781L63.1705 64.0781L61.277 64.7219ZM73.6478 97H65.4398V99H73.6478V97ZM54.1118 88.824H62.5598V86.824H54.1118V88.824ZM63.522 87.5517L59.298 72.6237L57.3735 73.1683L61.5975 88.0963L63.522 87.5517ZM57.3735 72.6237L53.1495 87.5517L55.074 88.0963L59.298 73.1683L57.3735 72.6237ZM107.43 98L106.468 98.2717L106.674 99H107.43V98ZM106.278 93.92L107.241 93.6483L107.035 92.92H106.278V93.92ZM94.3744 93.92V92.92H93.6176L93.412 93.6483L94.3744 93.92ZM93.2224 98V99H93.9791L94.1848 98.2717L93.2224 98ZM85.0144 98L84.0672 97.6793L83.62 99H85.0144V98ZM96.3904 64.4V63.4H95.6732L95.4432 64.0793L96.3904 64.4ZM104.214 64.4L105.161 64.0781L104.931 63.4H104.214V64.4ZM115.638 98V99H117.035L116.585 97.6781L115.638 98ZM96.1024 87.824L95.1402 87.5517L94.7802 88.824H96.1024V87.824ZM104.55 87.824V88.824H105.873L105.513 87.5517L104.55 87.824ZM100.326 72.896L101.289 72.6237L100.326 69.2232L99.3642 72.6237L100.326 72.896ZM108.393 97.7283L107.241 93.6483L105.316 94.1917L106.468 98.2717L108.393 97.7283ZM106.278 92.92H94.3744V94.92H106.278V92.92ZM93.412 93.6483L92.26 97.7283L94.1848 98.2717L95.3368 94.1917L93.412 93.6483ZM93.2224 97H85.0144V99H93.2224V97ZM85.9616 98.3207L97.3376 64.7207L95.4432 64.0793L84.0672 97.6793L85.9616 98.3207ZM96.3904 65.4H104.214V63.4H96.3904V65.4ZM103.268 64.7219L114.692 98.3219L116.585 97.6781L105.161 64.0781L103.268 64.7219ZM115.638 97H107.43V99H115.638V97ZM96.1024 88.824H104.55V86.824H96.1024V88.824ZM105.513 87.5517L101.289 72.6237L99.3642 73.1683L103.588 88.0963L105.513 87.5517ZM99.3642 72.6237L95.1402 87.5517L97.0646 88.0963L101.289 73.1683L99.3642 72.6237ZM63.9998 135.816L63.8097 134.834L63.9049 136.811L63.9998 135.816ZM68.9438 138.216L68.2038 138.889L68.2118 138.897L68.22 138.906L68.9438 138.216ZM45.8078 153H44.8078V154H45.8078V153ZM45.8078 119.4V118.4H44.8078V119.4H45.8078ZM67.5038 121.752L66.8712 122.527L66.8782 122.532L66.8854 122.538L67.5038 121.752ZM68.7038 133.32L69.4471 133.989L69.4552 133.98L68.7038 133.32ZM53.5838 125.016V124.016H52.5838V125.016H53.5838ZM53.5838 133.176H52.5838V134.176H53.5838V133.176ZM61.3598 132.12L62.0057 132.883L62.0082 132.881L61.3598 132.12ZM61.4078 126.12L60.7452 126.869L60.7534 126.876L60.7618 126.883L61.4078 126.12ZM61.8398 145.944L62.518 146.679L62.5255 146.672L62.5329 146.665L61.8398 145.944ZM61.7918 139.704L61.1135 140.439L61.1281 140.452L61.1433 140.465L61.7918 139.704ZM53.5838 138.552V137.552H52.5838V138.552H53.5838ZM53.5838 147.096H52.5838V148.096H53.5838V147.096ZM63.9049 136.811C65.6906 136.982 67.1026 137.677 68.2038 138.889L69.6837 137.543C68.2249 135.939 66.3409 135.034 64.0946 134.821L63.9049 136.811ZM68.22 138.906C69.321 140.061 69.9118 141.62 69.9118 143.688H71.9118C71.9118 141.212 71.1905 139.123 69.6675 137.526L68.22 138.906ZM69.9118 143.688C69.9118 146.321 69.047 148.301 67.3768 149.748L68.6867 151.26C70.8565 149.379 71.9118 146.815 71.9118 143.688H69.9118ZM67.3768 149.748C65.6888 151.211 63.3231 152 60.1598 152V154C63.6525 154 66.5347 153.125 68.6867 151.26L67.3768 149.748ZM60.1598 152H45.8078V154H60.1598V152ZM46.8078 153V119.4H44.8078V153H46.8078ZM45.8078 120.4H59.6318V118.4H45.8078V120.4ZM59.6318 120.4C62.8083 120.4 65.1827 121.148 66.8712 122.527L68.1363 120.977C65.9848 119.22 63.1112 118.4 59.6318 118.4V120.4ZM66.8854 122.538C68.5713 123.865 69.4318 125.689 69.4318 128.136H71.4318C71.4318 125.143 70.3402 122.711 68.1221 120.966L66.8854 122.538ZM69.4318 128.136C69.4318 130.095 68.9097 131.57 67.9523 132.66L69.4552 133.98C70.8018 132.446 71.4318 130.465 71.4318 128.136H69.4318ZM67.9605 132.651C66.9781 133.743 65.6186 134.484 63.8097 134.834L64.1898 136.798C66.3489 136.38 68.1254 135.457 69.447 133.989L67.9605 132.651ZM57.9038 124.016H53.5838V126.016H57.9038V124.016ZM52.5838 125.016V133.176H54.5838V125.016H52.5838ZM53.5838 134.176H57.9038V132.176H53.5838V134.176ZM57.9038 134.176C59.529 134.176 60.9384 133.786 62.0057 132.883L60.7138 131.357C60.1171 131.862 59.2225 132.176 57.9038 132.176V134.176ZM62.0082 132.881C63.1253 131.93 63.6558 130.627 63.6558 129.096H61.6558C61.6558 130.125 61.3222 130.838 60.7113 131.359L62.0082 132.881ZM63.6558 129.096C63.6558 127.579 63.1503 126.284 62.0537 125.357L60.7618 126.883C61.3292 127.363 61.6558 128.053 61.6558 129.096H63.6558ZM62.0703 125.371C60.9993 124.424 59.5647 124.016 57.9038 124.016V126.016C59.2508 126.016 60.1522 126.344 60.7452 126.869L62.0703 125.371ZM58.4318 148.096C60.0523 148.096 61.4551 147.66 62.518 146.679L61.1615 145.209C60.5604 145.764 59.6912 146.096 58.4318 146.096V148.096ZM62.5329 146.665C63.5982 145.64 64.0878 144.272 64.0878 142.68H62.0878C62.0878 143.84 61.7453 144.648 61.1466 145.223L62.5329 146.665ZM64.0878 142.68C64.0878 141.172 63.5512 139.889 62.4402 138.943L61.1433 140.465C61.7603 140.991 62.0878 141.692 62.0878 142.68H64.0878ZM62.47 138.969C61.4111 137.992 60.0271 137.552 58.4318 137.552V139.552C59.6524 139.552 60.5084 139.88 61.1135 140.439L62.47 138.969ZM58.4318 137.552H53.5838V139.552H58.4318V137.552ZM52.5838 138.552V147.096H54.5838V138.552H52.5838ZM53.5838 148.096H58.4318V146.096H53.5838V148.096ZM88.0556 149.016L87.3451 149.72L87.3485 149.723L88.0556 149.016ZM88.0556 123.432L88.7627 124.139L88.7661 124.136L88.0556 123.432ZM113.016 122.04L112.396 122.825L112.405 122.832L113.016 122.04ZM118.296 131.592V132.592H119.414L119.289 131.481L118.296 131.592ZM110.04 131.592L109.066 131.819L109.246 132.592H110.04V131.592ZM107.064 127.08L106.474 127.888L106.486 127.896L107.064 127.08ZM93.8636 128.328L94.6008 129.004L94.6063 128.998L93.8636 128.328ZM93.8636 144.12L93.1209 144.79L93.1265 144.796L93.8636 144.12ZM107.064 145.368L107.642 146.184L107.653 146.176L107.064 145.368ZM110.04 140.808V139.808H109.246L109.066 140.581L110.04 140.808ZM118.296 140.808L119.289 140.919L119.414 139.808H118.296V140.808ZM113.016 150.408L113.63 151.197L113.631 151.196L113.016 150.408ZM101.16 152.96C95.937 152.96 91.8399 151.386 88.7627 148.309L87.3485 149.723C90.8634 153.238 95.5023 154.96 101.16 154.96V152.96ZM88.7661 148.312C85.6774 145.194 84.1116 141.185 84.1116 136.2H82.1116C82.1116 141.647 83.8418 146.182 87.3451 149.72L88.7661 148.312ZM84.1116 136.2C84.1116 131.215 85.6773 127.225 88.7627 124.139L87.3485 122.725C83.8419 126.231 82.1116 130.753 82.1116 136.2H84.1116ZM88.7661 124.136C91.8439 121.028 95.9399 119.44 101.16 119.44V117.44C95.4994 117.44 90.8594 119.18 87.3451 122.728L88.7661 124.136ZM101.16 119.44C105.857 119.44 109.574 120.597 112.396 122.825L113.635 121.255C110.378 118.683 106.19 117.44 101.16 117.44V119.44ZM112.405 122.832C115.253 125.028 116.883 127.961 117.302 131.703L119.289 131.481C118.813 127.223 116.922 123.788 113.626 121.248L112.405 122.832ZM118.296 130.592H110.04V132.592H118.296V130.592ZM111.013 131.365C110.513 129.219 109.387 127.5 107.642 126.264L106.486 127.896C107.812 128.836 108.67 130.125 109.066 131.819L111.013 131.365ZM107.653 126.272C105.908 124.999 103.735 124.4 101.208 124.4V126.4C103.417 126.4 105.148 126.921 106.474 127.888L107.653 126.272ZM101.208 124.4C97.8481 124.4 95.1071 125.455 93.1209 127.658L94.6063 128.998C96.1401 127.297 98.2952 126.4 101.208 126.4V124.4ZM93.1265 127.652C91.1544 129.804 90.2236 132.694 90.2236 136.2H92.2236C92.2236 133.05 93.0529 130.692 94.6008 129.004L93.1265 127.652ZM90.2236 136.2C90.2236 139.707 91.1547 142.609 93.1209 144.79L94.6063 143.45C93.0526 141.727 92.2236 139.349 92.2236 136.2H90.2236ZM93.1265 144.796C95.1141 146.964 97.8533 148 101.208 148V146C98.2899 146 96.1332 145.116 94.6008 143.444L93.1265 144.796ZM101.208 148C103.729 148 105.898 147.419 107.642 146.184L106.486 144.552C105.158 145.493 103.422 146 101.208 146V148ZM107.653 146.176C109.39 144.909 110.513 143.179 111.013 141.035L109.066 140.581C108.67 142.277 107.809 143.587 106.474 144.56L107.653 146.176ZM110.04 141.808H118.296V139.808H110.04V141.808ZM117.302 140.697C116.883 144.439 115.252 147.391 112.4 149.62L113.631 151.196C116.923 148.625 118.813 145.177 119.289 140.919L117.302 140.697ZM112.401 149.619C109.578 151.818 105.86 152.96 101.16 152.96V154.96C106.187 154.96 110.373 153.734 113.63 151.197L112.401 149.619Z" fill="#303A40"/>
</svg>
