<svg width="196" height="146" viewBox="0 0 196 146" fill="none" xmlns="http://www.w3.org/2000/svg">
<rect width="196" height="146" fill="black"/>
<rect y="21" width="196" height="107" rx="8" fill="#071D88"/>
<path d="M54.304 30.824C51.04 34.248 46.688 35.96 41.248 35.96C35.808 35.96 31.456 34.248 28.192 30.824C24.928 27.368 23.296 23.16 23.296 18.2C23.296 13.24 24.928 9.048 28.192 5.624C31.456 2.168 35.808 0.439999 41.248 0.439999C46.688 0.439999 51.04 2.168 54.304 5.624C57.568 9.048 59.2 13.24 59.2 18.2C59.2 23.16 57.568 27.368 54.304 30.824ZM41.248 29C44.32 29 46.72 27.976 48.448 25.928C50.208 23.848 51.088 21.272 51.088 18.2C51.088 15.128 50.208 12.568 48.448 10.52C46.72 8.44 44.32 7.4 41.248 7.4C38.144 7.4 35.712 8.44 33.952 10.52C32.224 12.568 31.376 15.128 31.408 18.2C31.376 21.272 32.224 23.848 33.952 25.928C35.712 27.976 38.144 29 41.248 29ZM73.3015 35V1.4H81.0775V28.088H93.5575V35H73.3015ZM108.261 35V1.4H116.037V28.088H128.517V35H108.261ZM87.4398 90L86.2878 85.92H74.3838L73.2318 90H65.0238L76.3998 56.4H84.2238L95.6478 90H87.4398ZM76.1118 79.824H84.5598L80.3358 64.896L76.1118 79.824ZM129.43 90L128.278 85.92H116.374L115.222 90H107.014L118.39 56.4H126.214L137.638 90H129.43ZM118.102 79.824H126.55L122.326 64.896L118.102 79.824ZM85.9998 127.816C88.0158 128.008 89.6638 128.808 90.9438 130.216C92.2558 131.592 92.9118 133.416 92.9118 135.688C92.9118 138.568 91.9518 140.84 90.0318 142.504C88.1118 144.168 85.4878 145 82.1598 145H67.8078V111.4H81.6318C84.9598 111.4 87.5838 112.184 89.5038 113.752C91.4558 115.288 92.4318 117.416 92.4318 120.136C92.4318 122.28 91.8558 124.008 90.7038 125.32C89.5518 126.6 87.9838 127.432 85.9998 127.816ZM79.9038 117.016H75.5838V125.176H79.9038C81.3758 125.176 82.5278 124.824 83.3598 124.12C84.2238 123.384 84.6558 122.376 84.6558 121.096C84.6558 119.816 84.2398 118.824 83.4078 118.12C82.5758 117.384 81.4078 117.016 79.9038 117.016ZM80.4318 139.096C81.8718 139.096 83.0078 138.712 83.8398 137.944C84.6718 137.144 85.0878 136.056 85.0878 134.68C85.0878 133.432 84.6558 132.44 83.7918 131.704C82.9598 130.936 81.8398 130.552 80.4318 130.552H75.5838V139.096H80.4318ZM123.16 145.96C117.72 145.96 113.352 144.312 110.056 141.016C106.76 137.688 105.112 133.416 105.112 128.2C105.112 122.984 106.76 118.728 110.056 115.432C113.352 112.104 117.72 110.44 123.16 110.44C128.024 110.44 131.976 111.64 135.016 114.04C138.088 116.408 139.848 119.592 140.296 123.592H132.04C131.592 121.672 130.6 120.168 129.064 119.08C127.528 117.96 125.576 117.4 123.208 117.4C120.072 117.4 117.624 118.376 115.864 120.328C114.104 122.248 113.224 124.872 113.224 128.2C113.224 131.528 114.104 134.168 115.864 136.12C117.624 138.04 120.072 139 123.208 139C125.576 139 127.528 138.456 129.064 137.368C130.6 136.248 131.592 134.728 132.04 132.808H140.296C139.848 136.808 138.088 140.008 135.016 142.408C131.976 144.776 128.024 145.96 123.16 145.96Z" fill="#6B7891"/>
<path d="M54.304 30.824L55.0278 31.514L55.031 31.5106L54.304 30.824ZM28.192 30.824L27.465 31.5106L27.4682 31.514L28.192 30.824ZM28.192 5.624L28.9158 6.314L28.919 6.31062L28.192 5.624ZM54.304 5.624L53.577 6.31063L53.5802 6.31399L54.304 5.624ZM48.448 25.928L47.6846 25.2821L47.6837 25.2831L48.448 25.928ZM48.448 10.52L47.6788 11.159L47.6841 11.1654L47.6896 11.1718L48.448 10.52ZM33.952 10.52L33.1886 9.87405L33.1877 9.87513L33.952 10.52ZM31.408 18.2L32.4079 18.2104L32.4081 18.2L32.4079 18.1896L31.408 18.2ZM33.952 25.928L33.1828 26.567L33.1881 26.5734L33.1936 26.5798L33.952 25.928ZM53.5802 30.134C50.5338 33.3298 46.4593 34.96 41.248 34.96V36.96C46.9167 36.96 51.5462 35.1662 55.0278 31.514L53.5802 30.134ZM41.248 34.96C36.0367 34.96 31.9622 33.3298 28.9158 30.134L27.4682 31.514C30.9498 35.1662 35.5793 36.96 41.248 36.96V34.96ZM28.919 30.1374C25.8386 26.8757 24.296 22.9169 24.296 18.2H22.296C22.296 23.4031 24.0174 27.8603 27.465 31.5106L28.919 30.1374ZM24.296 18.2C24.296 13.4832 25.8384 9.54228 28.9158 6.31399L27.4682 4.934C24.0176 8.55372 22.296 12.9968 22.296 18.2H24.296ZM28.919 6.31062C31.9662 3.08423 36.0396 1.44 41.248 1.44V-0.560001C35.5764 -0.560001 30.9458 1.25176 27.465 4.93737L28.919 6.31062ZM41.248 1.44C46.4564 1.44 50.5298 3.08423 53.577 6.31062L55.031 4.93737C51.5502 1.25176 46.9196 -0.560001 41.248 -0.560001V1.44ZM53.5802 6.31399C56.6576 9.54228 58.2 13.4832 58.2 18.2H60.2C60.2 12.9968 58.4784 8.55372 55.0278 4.934L53.5802 6.31399ZM58.2 18.2C58.2 22.9169 56.6574 26.8757 53.577 30.1374L55.031 31.5106C58.4786 27.8603 60.2 23.4031 60.2 18.2H58.2ZM41.248 30C44.5665 30 47.2653 28.8805 49.2123 26.5729L47.6837 25.2831C46.1747 27.0715 44.0735 28 41.248 28V30ZM49.2114 26.5739C51.1437 24.2903 52.088 21.4764 52.088 18.2H50.088C50.088 21.0676 49.2723 23.4057 47.6846 25.2821L49.2114 26.5739ZM52.088 18.2C52.088 14.9239 51.1437 12.1225 49.2064 9.86823L47.6896 11.1718C49.2723 13.0135 50.088 15.3321 50.088 18.2H52.088ZM49.2172 9.88098C47.272 7.53952 44.5719 6.4 41.248 6.4V8.4C44.0681 8.4 46.168 9.34047 47.6788 11.159L49.2172 9.88098ZM41.248 6.4C37.8956 6.4 35.1663 7.53676 33.1886 9.87406L34.7154 11.1659C36.2577 9.34324 38.3924 8.4 41.248 8.4V6.4ZM33.1877 9.87513C31.2827 12.1329 30.3739 14.9361 30.4081 18.2104L32.4079 18.1896C32.3781 15.3199 33.1653 13.0031 34.7163 11.1649L33.1877 9.87513ZM30.4081 18.1896C30.3739 21.4643 31.2828 24.28 33.1828 26.567L34.7212 25.289C33.1652 23.416 32.3781 21.0797 32.4079 18.2104L30.4081 18.1896ZM33.1936 26.5798C35.173 28.8831 37.901 30 41.248 30V28C38.387 28 36.251 27.0689 34.7104 25.2762L33.1936 26.5798ZM73.3015 35H72.3015V36H73.3015V35ZM73.3015 1.4V0.399998H72.3015V1.4H73.3015ZM81.0775 1.4H82.0775V0.399998H81.0775V1.4ZM81.0775 28.088H80.0775V29.088H81.0775V28.088ZM93.5575 28.088H94.5575V27.088H93.5575V28.088ZM93.5575 35V36H94.5575V35H93.5575ZM74.3015 35V1.4H72.3015V35H74.3015ZM73.3015 2.4H81.0775V0.399998H73.3015V2.4ZM80.0775 1.4V28.088H82.0775V1.4H80.0775ZM81.0775 29.088H93.5575V27.088H81.0775V29.088ZM92.5575 28.088V35H94.5575V28.088H92.5575ZM93.5575 34H73.3015V36H93.5575V34ZM108.261 35H107.261V36H108.261V35ZM108.261 1.4V0.399998H107.261V1.4H108.261ZM116.037 1.4H117.037V0.399998H116.037V1.4ZM116.037 28.088H115.037V29.088H116.037V28.088ZM128.517 28.088H129.517V27.088H128.517V28.088ZM128.517 35V36H129.517V35H128.517ZM109.261 35V1.4H107.261V35H109.261ZM108.261 2.4H116.037V0.399998H108.261V2.4ZM115.037 1.4V28.088H117.037V1.4H115.037ZM116.037 29.088H128.517V27.088H116.037V29.088ZM127.517 28.088V35H129.517V28.088H127.517ZM128.517 34H108.261V36H128.517V34ZM87.4398 90L86.4774 90.2717L86.683 91H87.4398V90ZM86.2878 85.92L87.2501 85.6483L87.0445 84.92H86.2878V85.92ZM74.3838 85.92V84.92H73.627L73.4214 85.6483L74.3838 85.92ZM73.2318 90V91H73.9885L74.1941 90.2717L73.2318 90ZM65.0238 90L64.0766 89.6793L63.6294 91H65.0238V90ZM76.3998 56.4V55.4H75.6826L75.4526 56.0793L76.3998 56.4ZM84.2238 56.4L85.1705 56.0781L84.94 55.4H84.2238V56.4ZM95.6478 90V91H97.044L96.5945 89.6781L95.6478 90ZM76.1118 79.824L75.1495 79.5517L74.7895 80.824H76.1118V79.824ZM84.5598 79.824V80.824H85.882L85.522 79.5517L84.5598 79.824ZM80.3358 64.896L81.298 64.6237L80.3358 61.2232L79.3735 64.6237L80.3358 64.896ZM88.4021 89.7283L87.2501 85.6483L85.3254 86.1917L86.4774 90.2717L88.4021 89.7283ZM86.2878 84.92H74.3838V86.92H86.2878V84.92ZM73.4214 85.6483L72.2694 89.7283L74.1941 90.2717L75.3461 86.1917L73.4214 85.6483ZM73.2318 89H65.0238V91H73.2318V89ZM65.9709 90.3207L77.3469 56.7207L75.4526 56.0793L64.0766 89.6793L65.9709 90.3207ZM76.3998 57.4H84.2238V55.4H76.3998V57.4ZM83.277 56.7219L94.701 90.3219L96.5945 89.6781L85.1705 56.0781L83.277 56.7219ZM95.6478 89H87.4398V91H95.6478V89ZM76.1118 80.824H84.5598V78.824H76.1118V80.824ZM85.522 79.5517L81.298 64.6237L79.3735 65.1683L83.5975 80.0963L85.522 79.5517ZM79.3735 64.6237L75.1495 79.5517L77.074 80.0963L81.298 65.1683L79.3735 64.6237ZM129.43 90L128.468 90.2717L128.674 91H129.43V90ZM128.278 85.92L129.241 85.6483L129.035 84.92H128.278V85.92ZM116.374 85.92V84.92H115.618L115.412 85.6483L116.374 85.92ZM115.222 90V91H115.979L116.185 90.2717L115.222 90ZM107.014 90L106.067 89.6793L105.62 91H107.014V90ZM118.39 56.4V55.4H117.673L117.443 56.0793L118.39 56.4ZM126.214 56.4L127.161 56.0781L126.931 55.4H126.214V56.4ZM137.638 90V91H139.035L138.585 89.6781L137.638 90ZM118.102 79.824L117.14 79.5517L116.78 80.824H118.102V79.824ZM126.55 79.824V80.824H127.873L127.513 79.5517L126.55 79.824ZM122.326 64.896L123.289 64.6237L122.326 61.2232L121.364 64.6237L122.326 64.896ZM130.393 89.7283L129.241 85.6483L127.316 86.1917L128.468 90.2717L130.393 89.7283ZM128.278 84.92H116.374V86.92H128.278V84.92ZM115.412 85.6483L114.26 89.7283L116.185 90.2717L117.337 86.1917L115.412 85.6483ZM115.222 89H107.014V91H115.222V89ZM107.962 90.3207L119.338 56.7207L117.443 56.0793L106.067 89.6793L107.962 90.3207ZM118.39 57.4H126.214V55.4H118.39V57.4ZM125.268 56.7219L136.692 90.3219L138.585 89.6781L127.161 56.0781L125.268 56.7219ZM137.638 89H129.43V91H137.638V89ZM118.102 80.824H126.55V78.824H118.102V80.824ZM127.513 79.5517L123.289 64.6237L121.364 65.1683L125.588 80.0963L127.513 79.5517ZM121.364 64.6237L117.14 79.5517L119.065 80.0963L123.289 65.1683L121.364 64.6237ZM85.9998 127.816L85.8097 126.834L85.9049 128.811L85.9998 127.816ZM90.9438 130.216L90.2038 130.889L90.2118 130.897L90.22 130.906L90.9438 130.216ZM67.8078 145H66.8078V146H67.8078V145ZM67.8078 111.4V110.4H66.8078V111.4H67.8078ZM89.5038 113.752L88.8712 114.527L88.8782 114.532L88.8854 114.538L89.5038 113.752ZM90.7038 125.32L91.4471 125.989L91.4552 125.98L90.7038 125.32ZM75.5838 117.016V116.016H74.5838V117.016H75.5838ZM75.5838 125.176H74.5838V126.176H75.5838V125.176ZM83.3598 124.12L84.0057 124.883L84.0082 124.881L83.3598 124.12ZM83.4078 118.12L82.7452 118.869L82.7534 118.876L82.7618 118.883L83.4078 118.12ZM83.8398 137.944L84.518 138.679L84.5255 138.672L84.5329 138.665L83.8398 137.944ZM83.7918 131.704L83.1135 132.439L83.1281 132.452L83.1433 132.465L83.7918 131.704ZM75.5838 130.552V129.552H74.5838V130.552H75.5838ZM75.5838 139.096H74.5838V140.096H75.5838V139.096ZM85.9049 128.811C87.6906 128.982 89.1026 129.677 90.2038 130.889L91.6837 129.543C90.2249 127.939 88.3409 127.034 86.0946 126.821L85.9049 128.811ZM90.22 130.906C91.321 132.061 91.9118 133.62 91.9118 135.688H93.9118C93.9118 133.212 93.1905 131.123 91.6675 129.526L90.22 130.906ZM91.9118 135.688C91.9118 138.321 91.047 140.301 89.3768 141.748L90.6867 143.26C92.8565 141.379 93.9118 138.815 93.9118 135.688H91.9118ZM89.3768 141.748C87.6888 143.211 85.3231 144 82.1598 144V146C85.6525 146 88.5347 145.125 90.6867 143.26L89.3768 141.748ZM82.1598 144H67.8078V146H82.1598V144ZM68.8078 145V111.4H66.8078V145H68.8078ZM67.8078 112.4H81.6318V110.4H67.8078V112.4ZM81.6318 112.4C84.8083 112.4 87.1827 113.148 88.8712 114.527L90.1363 112.977C87.9848 111.22 85.1112 110.4 81.6318 110.4V112.4ZM88.8854 114.538C90.5713 115.865 91.4318 117.689 91.4318 120.136H93.4318C93.4318 117.143 92.3402 114.711 90.1221 112.966L88.8854 114.538ZM91.4318 120.136C91.4318 122.095 90.9097 123.57 89.9523 124.66L91.4552 125.98C92.8018 124.446 93.4318 122.465 93.4318 120.136H91.4318ZM89.9605 124.651C88.9781 125.743 87.6186 126.484 85.8097 126.834L86.1898 128.798C88.3489 128.38 90.1254 127.457 91.447 125.989L89.9605 124.651ZM79.9038 116.016H75.5838V118.016H79.9038V116.016ZM74.5838 117.016V125.176H76.5838V117.016H74.5838ZM75.5838 126.176H79.9038V124.176H75.5838V126.176ZM79.9038 126.176C81.529 126.176 82.9384 125.786 84.0057 124.883L82.7138 123.357C82.1171 123.862 81.2225 124.176 79.9038 124.176V126.176ZM84.0082 124.881C85.1253 123.93 85.6558 122.627 85.6558 121.096H83.6558C83.6558 122.125 83.3222 122.838 82.7113 123.359L84.0082 124.881ZM85.6558 121.096C85.6558 119.579 85.1503 118.284 84.0537 117.357L82.7618 118.883C83.3292 119.363 83.6558 120.053 83.6558 121.096H85.6558ZM84.0703 117.371C82.9993 116.424 81.5647 116.016 79.9038 116.016V118.016C81.2508 118.016 82.1522 118.344 82.7452 118.869L84.0703 117.371ZM80.4318 140.096C82.0523 140.096 83.4551 139.66 84.518 138.679L83.1615 137.209C82.5604 137.764 81.6912 138.096 80.4318 138.096V140.096ZM84.5329 138.665C85.5982 137.64 86.0878 136.272 86.0878 134.68H84.0878C84.0878 135.84 83.7453 136.648 83.1466 137.223L84.5329 138.665ZM86.0878 134.68C86.0878 133.172 85.5512 131.889 84.4402 130.943L83.1433 132.465C83.7603 132.991 84.0878 133.692 84.0878 134.68H86.0878ZM84.47 130.969C83.4111 129.992 82.0271 129.552 80.4318 129.552V131.552C81.6524 131.552 82.5084 131.88 83.1135 132.439L84.47 130.969ZM80.4318 129.552H75.5838V131.552H80.4318V129.552ZM74.5838 130.552V139.096H76.5838V130.552H74.5838ZM75.5838 140.096H80.4318V138.096H75.5838V140.096ZM110.056 141.016L109.345 141.72L109.349 141.723L110.056 141.016ZM110.056 115.432L110.763 116.139L110.766 116.136L110.056 115.432ZM135.016 114.04L134.396 114.825L134.405 114.832L135.016 114.04ZM140.296 123.592V124.592H141.414L141.289 123.481L140.296 123.592ZM132.04 123.592L131.066 123.819L131.246 124.592H132.04V123.592ZM129.064 119.08L128.474 119.888L128.486 119.896L129.064 119.08ZM115.864 120.328L116.601 121.004L116.606 120.998L115.864 120.328ZM115.864 136.12L115.121 136.79L115.126 136.796L115.864 136.12ZM129.064 137.368L129.642 138.184L129.653 138.176L129.064 137.368ZM132.04 132.808V131.808H131.246L131.066 132.581L132.04 132.808ZM140.296 132.808L141.289 132.919L141.414 131.808H140.296V132.808ZM135.016 142.408L135.63 143.197L135.631 143.196L135.016 142.408ZM123.16 144.96C117.937 144.96 113.84 143.386 110.763 140.309L109.349 141.723C112.863 145.238 117.502 146.96 123.16 146.96V144.96ZM110.766 140.312C107.677 137.194 106.112 133.185 106.112 128.2H104.112C104.112 133.647 105.842 138.182 109.345 141.72L110.766 140.312ZM106.112 128.2C106.112 123.215 107.677 119.225 110.763 116.139L109.349 114.725C105.842 118.231 104.112 122.753 104.112 128.2H106.112ZM110.766 116.136C113.844 113.028 117.94 111.44 123.16 111.44V109.44C117.499 109.44 112.859 111.18 109.345 114.728L110.766 116.136ZM123.16 111.44C127.857 111.44 131.574 112.597 134.396 114.825L135.635 113.255C132.378 110.683 128.19 109.44 123.16 109.44V111.44ZM134.405 114.832C137.253 117.028 138.883 119.961 139.302 123.703L141.289 123.481C140.813 119.223 138.922 115.788 135.626 113.248L134.405 114.832ZM140.296 122.592H132.04V124.592H140.296V122.592ZM133.013 123.365C132.513 121.219 131.387 119.5 129.642 118.264L128.486 119.896C129.812 120.836 130.67 122.125 131.066 123.819L133.013 123.365ZM129.653 118.272C127.908 116.999 125.735 116.4 123.208 116.4V118.4C125.417 118.4 127.148 118.921 128.474 119.888L129.653 118.272ZM123.208 116.4C119.848 116.4 117.107 117.455 115.121 119.658L116.606 120.998C118.14 119.297 120.295 118.4 123.208 118.4V116.4ZM115.126 119.652C113.154 121.804 112.224 124.694 112.224 128.2H114.224C114.224 125.05 115.053 122.692 116.601 121.004L115.126 119.652ZM112.224 128.2C112.224 131.707 113.155 134.609 115.121 136.79L116.606 135.45C115.053 133.727 114.224 131.349 114.224 128.2H112.224ZM115.126 136.796C117.114 138.964 119.853 140 123.208 140V138C120.29 138 118.133 137.116 116.601 135.444L115.126 136.796ZM123.208 140C125.729 140 127.898 139.419 129.642 138.184L128.486 136.552C127.158 137.493 125.422 138 123.208 138V140ZM129.653 138.176C131.39 136.909 132.513 135.179 133.013 133.035L131.066 132.581C130.67 134.277 129.809 135.587 128.474 136.56L129.653 138.176ZM132.04 133.808H140.296V131.808H132.04V133.808ZM139.302 132.697C138.883 136.439 137.252 139.391 134.4 141.62L135.631 143.196C138.923 140.625 140.813 137.177 141.289 132.919L139.302 132.697ZM134.401 141.619C131.578 143.818 127.86 144.96 123.16 144.96V146.96C128.187 146.96 132.373 145.734 135.63 143.197L134.401 141.619Z" fill="black"/>
</svg>
