<svg width="199" height="165" viewBox="0 0 199 165" fill="none" xmlns="http://www.w3.org/2000/svg">
<rect x="5" y="32" width="192" height="103" rx="6" fill="#DEC79E" stroke="#020001" stroke-width="4"/>
<path d="M2.08594 27.0312C2.08594 23.5312 2.60938 20.5938 3.65625 18.2188C4.4375 16.4688 5.5 14.8984 6.84375 13.5078C8.20312 12.1172 9.6875 11.0859 11.2969 10.4141C13.4375 9.50781 15.9062 9.05469 18.7031 9.05469C23.7656 9.05469 27.8125 10.625 30.8438 13.7656C33.8906 16.9062 35.4141 21.2734 35.4141 26.8672C35.4141 32.4141 33.9062 36.7578 30.8906 39.8984C27.875 43.0234 23.8438 44.5859 18.7969 44.5859C13.6875 44.5859 9.625 43.0312 6.60938 39.9219C3.59375 36.7969 2.08594 32.5 2.08594 27.0312ZM9.23438 26.7969C9.23438 30.6875 10.1328 33.6406 11.9297 35.6562C13.7266 37.6562 16.0078 38.6562 18.7734 38.6562C21.5391 38.6562 23.8047 37.6641 25.5703 35.6797C27.3516 33.6797 28.2422 30.6875 28.2422 26.7031C28.2422 22.7656 27.375 19.8281 25.6406 17.8906C23.9219 15.9531 21.6328 14.9844 18.7734 14.9844C15.9141 14.9844 13.6094 15.9688 11.8594 17.9375C10.1094 19.8906 9.23438 22.8438 9.23438 26.7969ZM50.6391 44V9.92188H57.5766V38.2109H74.8266V44H50.6391ZM89.5828 44V9.92188H96.5203V38.2109H113.77V44H89.5828ZM78.6141 99H71.0672L68.0672 91.1953H54.3328L51.4969 99H44.1375L57.5203 64.6406H64.8563L78.6141 99ZM65.8406 85.4062L61.1063 72.6562L56.4656 85.4062H65.8406ZM122.902 99H115.355L112.355 91.1953H98.6203L95.7844 99H88.425L101.808 64.6406H109.144L122.902 99ZM110.128 85.4062L105.394 72.6562L100.753 85.4062H110.128ZM49.4344 119.641H63.1688C65.8875 119.641 67.9109 119.758 69.2391 119.992C70.5828 120.211 71.7781 120.68 72.825 121.398C73.8875 122.117 74.7703 123.078 75.4734 124.281C76.1766 125.469 76.5281 126.805 76.5281 128.289C76.5281 129.898 76.0906 131.375 75.2156 132.719C74.3563 134.062 73.1844 135.07 71.7 135.742C73.7938 136.352 75.4031 137.391 76.5281 138.859C77.6531 140.328 78.2156 142.055 78.2156 144.039C78.2156 145.602 77.8484 147.125 77.1141 148.609C76.3953 150.078 75.4031 151.258 74.1375 152.148C72.8875 153.023 71.3406 153.562 69.4969 153.766C68.3406 153.891 65.5516 153.969 61.1297 154H49.4344V119.641ZM56.3719 125.359V133.305H60.9188C63.6219 133.305 65.3016 133.266 65.9578 133.188C67.1453 133.047 68.075 132.641 68.7469 131.969C69.4344 131.281 69.7781 130.383 69.7781 129.273C69.7781 128.211 69.4813 127.352 68.8875 126.695C68.3094 126.023 67.4422 125.617 66.2859 125.477C65.5984 125.398 63.6219 125.359 60.3563 125.359H56.3719ZM56.3719 139.023V148.211H62.7938C65.2938 148.211 66.8797 148.141 67.5516 148C68.5828 147.812 69.4188 147.359 70.0594 146.641C70.7156 145.906 71.0438 144.93 71.0438 143.711C71.0438 142.68 70.7938 141.805 70.2938 141.086C69.7938 140.367 69.0672 139.844 68.1141 139.516C67.1766 139.188 65.1297 139.023 61.9734 139.023H56.3719ZM115.683 141.367L122.409 143.5C121.378 147.25 119.659 150.039 117.253 151.867C114.863 153.68 111.823 154.586 108.136 154.586C103.573 154.586 99.8234 153.031 96.8859 149.922C93.9484 146.797 92.4797 142.531 92.4797 137.125C92.4797 131.406 93.9563 126.969 96.9094 123.812C99.8625 120.641 103.745 119.055 108.558 119.055C112.761 119.055 116.175 120.297 118.8 122.781C120.363 124.25 121.534 126.359 122.316 129.109L115.448 130.75C115.042 128.969 114.191 127.562 112.894 126.531C111.613 125.5 110.05 124.984 108.206 124.984C105.659 124.984 103.589 125.898 101.995 127.727C100.417 129.555 99.6281 132.516 99.6281 136.609C99.6281 140.953 100.409 144.047 101.972 145.891C103.534 147.734 105.566 148.656 108.066 148.656C109.909 148.656 111.495 148.07 112.823 146.898C114.152 145.727 115.105 143.883 115.683 141.367Z" fill="white"/>
<path d="M3.65625 18.2188L2.7431 17.8111L2.7412 17.8154L3.65625 18.2188ZM6.84375 13.5078L6.12864 12.8088L6.12463 12.8129L6.84375 13.5078ZM11.2969 10.4141L11.6821 11.3369L11.6867 11.3349L11.2969 10.4141ZM30.8438 13.7656L30.1242 14.4601L30.126 14.4619L30.8438 13.7656ZM30.8906 39.8984L31.6102 40.5928L31.6119 40.591L30.8906 39.8984ZM6.60938 39.9219L5.88979 40.6163L5.89153 40.6181L6.60938 39.9219ZM11.9297 35.6562L11.1832 36.3217L11.1858 36.3246L11.9297 35.6562ZM25.5703 35.6797L24.8235 35.0146L24.8232 35.015L25.5703 35.6797ZM25.6406 17.8906L24.8925 18.5542L24.8955 18.5576L25.6406 17.8906ZM11.8594 17.9375L12.6042 18.6048L12.6068 18.6019L11.8594 17.9375ZM3.08594 27.0312C3.08594 23.6244 3.59634 20.8339 4.5713 18.6221L2.7412 17.8154C1.62241 20.3536 1.08594 23.4381 1.08594 27.0312H3.08594ZM4.56939 18.6264C5.30274 16.9837 6.29928 15.5104 7.56287 14.2027L6.12463 12.8129C4.70072 14.2865 3.57226 15.9538 2.74311 17.8111L4.56939 18.6264ZM7.55885 14.2068C8.83521 12.9011 10.2101 11.9514 11.6821 11.3369L10.9116 9.49125C9.16488 10.2205 7.57104 11.3332 6.12865 12.8088L7.55885 14.2068ZM11.6867 11.3349C13.6817 10.4904 16.0136 10.0547 18.7031 10.0547V8.05469C15.7989 8.05469 13.1933 8.52525 10.907 9.49319L11.6867 11.3349ZM18.7031 10.0547C23.5414 10.0547 27.3119 11.5462 30.1242 14.4601L31.5633 13.0712C28.3131 9.70376 23.9898 8.05469 18.7031 8.05469V10.0547ZM30.126 14.4619C32.9453 17.368 34.4141 21.4579 34.4141 26.8672H36.4141C36.4141 21.089 34.8359 16.4445 31.5615 13.0693L30.126 14.4619ZM34.4141 26.8672C34.4141 32.2297 32.9608 36.2986 30.1693 39.2058L31.6119 40.591C34.8517 37.217 36.4141 32.5985 36.4141 26.8672H34.4141ZM30.171 39.204C27.3747 42.1018 23.6202 43.5859 18.7969 43.5859V45.5859C24.0673 45.5859 28.3753 43.9451 31.6102 40.5928L30.171 39.204ZM18.7969 43.5859C13.9055 43.5859 10.1208 42.1061 7.32722 39.2257L5.89153 40.6181C9.12917 43.9564 13.4695 45.5859 18.7969 45.5859V43.5859ZM7.32896 39.2275C4.5368 36.334 3.08594 32.3113 3.08594 27.0312H1.08594C1.08594 32.6887 2.6507 37.2597 5.88979 40.6163L7.32896 39.2275ZM8.23438 26.7969C8.23438 30.8261 9.16375 34.0564 11.1832 36.3217L12.6761 34.9908C11.1019 33.2249 10.2344 30.5489 10.2344 26.7969H8.23438ZM11.1858 36.3246C13.1784 38.5425 15.7333 39.6562 18.7734 39.6562V37.6562C16.2823 37.6562 14.2747 36.77 12.6736 34.9879L11.1858 36.3246ZM18.7734 39.6562C21.8112 39.6562 24.3533 38.5519 26.3174 36.3444L24.8232 35.015C23.2561 36.7763 21.267 37.6562 18.7734 37.6562V39.6562ZM26.3171 36.3448C28.3252 34.0901 29.2422 30.8162 29.2422 26.7031H27.2422C27.2422 30.5588 26.378 33.2693 24.8235 35.0146L26.3171 36.3448ZM29.2422 26.7031C29.2422 22.6421 28.3509 19.419 26.3857 17.2237L24.8955 18.5576C26.3991 20.2373 27.2422 22.8891 27.2422 26.7031H29.2422ZM26.3887 17.227C24.4591 15.0519 21.8855 13.9844 18.7734 13.9844V15.9844C21.3801 15.9844 23.3846 16.8544 24.8925 18.5542L26.3887 17.227ZM18.7734 13.9844C15.6559 13.9844 13.0692 15.0712 11.112 17.2731L12.6068 18.6019C14.1495 16.8663 16.1722 15.9844 18.7734 15.9844V13.9844ZM11.1146 17.2702C9.13417 19.4805 8.23438 22.7188 8.23438 26.7969H10.2344C10.2344 22.9687 11.0846 20.3008 12.6041 18.6048L11.1146 17.2702ZM50.6391 44H49.6391V45H50.6391V44ZM50.6391 9.92188V8.92188H49.6391V9.92188H50.6391ZM57.5766 9.92188H58.5766V8.92188H57.5766V9.92188ZM57.5766 38.2109H56.5766V39.2109H57.5766V38.2109ZM74.8266 38.2109H75.8266V37.2109H74.8266V38.2109ZM74.8266 44V45H75.8266V44H74.8266ZM51.6391 44V9.92188H49.6391V44H51.6391ZM50.6391 10.9219H57.5766V8.92188H50.6391V10.9219ZM56.5766 9.92188V38.2109H58.5766V9.92188H56.5766ZM57.5766 39.2109H74.8266V37.2109H57.5766V39.2109ZM73.8266 38.2109V44H75.8266V38.2109H73.8266ZM74.8266 43H50.6391V45H74.8266V43ZM89.5828 44H88.5828V45H89.5828V44ZM89.5828 9.92188V8.92188H88.5828V9.92188H89.5828ZM96.5203 9.92188H97.5203V8.92188H96.5203V9.92188ZM96.5203 38.2109H95.5203V39.2109H96.5203V38.2109ZM113.77 38.2109H114.77V37.2109H113.77V38.2109ZM113.77 44V45H114.77V44H113.77ZM90.5828 44V9.92188H88.5828V44H90.5828ZM89.5828 10.9219H96.5203V8.92188H89.5828V10.9219ZM95.5203 9.92188V38.2109H97.5203V9.92188H95.5203ZM96.5203 39.2109H113.77V37.2109H96.5203V39.2109ZM112.77 38.2109V44H114.77V38.2109H112.77ZM113.77 43H89.5828V45H113.77V43ZM78.6141 99V100H80.0917L79.5424 98.6283L78.6141 99ZM71.0672 99L70.1338 99.3588L70.3802 100H71.0672V99ZM68.0672 91.1953L69.0006 90.8365L68.7541 90.1953H68.0672V91.1953ZM54.3328 91.1953V90.1953H53.6322L53.3929 90.8538L54.3328 91.1953ZM51.4969 99V100H52.1975L52.4368 99.3415L51.4969 99ZM44.1375 99L43.2057 98.6371L42.6748 100H44.1375V99ZM57.5203 64.6406V63.6406H56.8366L56.5885 64.2777L57.5203 64.6406ZM64.8562 64.6406L65.7846 64.2689L65.533 63.6406H64.8562V64.6406ZM65.8406 85.4062V86.4062H67.2787L66.7781 85.0582L65.8406 85.4062ZM61.1063 72.6562L62.0437 72.3082L61.0969 69.7582L60.1666 72.3142L61.1063 72.6562ZM56.4656 85.4062L55.5259 85.0642L55.0375 86.4062H56.4656V85.4062ZM78.6141 98H71.0672V100H78.6141V98ZM72.0006 98.6412L69.0006 90.8365L67.1338 91.5541L70.1338 99.3588L72.0006 98.6412ZM68.0672 90.1953H54.3328V92.1953H68.0672V90.1953ZM53.3929 90.8538L50.557 98.6585L52.4368 99.3415L55.2727 91.5368L53.3929 90.8538ZM51.4969 98H44.1375V100H51.4969V98ZM45.0693 99.3629L58.4521 65.0036L56.5885 64.2777L43.2057 98.6371L45.0693 99.3629ZM57.5203 65.6406H64.8562V63.6406H57.5203V65.6406ZM63.9279 65.0123L77.6857 99.3717L79.5424 98.6283L65.7846 64.2689L63.9279 65.0123ZM66.7781 85.0582L62.0437 72.3082L60.1688 73.0043L64.9032 85.7543L66.7781 85.0582ZM60.1666 72.3142L55.5259 85.0642L57.4053 85.7483L62.0459 72.9983L60.1666 72.3142ZM56.4656 86.4062H65.8406V84.4062H56.4656V86.4062ZM122.902 99V100H124.379L123.83 98.6283L122.902 99ZM115.355 99L114.421 99.3588L114.668 100H115.355V99ZM112.355 91.1953L113.288 90.8365L113.042 90.1953H112.355V91.1953ZM98.6203 91.1953V90.1953H97.9197L97.6804 90.8538L98.6203 91.1953ZM95.7844 99V100H96.485L96.7243 99.3415L95.7844 99ZM88.425 99L87.4932 98.6371L86.9623 100H88.425V99ZM101.808 64.6406V63.6406H101.124L100.876 64.2777L101.808 64.6406ZM109.144 64.6406L110.072 64.2689L109.821 63.6406H109.144V64.6406ZM110.128 85.4062V86.4062H111.566L111.066 85.0582L110.128 85.4062ZM105.394 72.6562L106.331 72.3082L105.384 69.7582L104.454 72.3142L105.394 72.6562ZM100.753 85.4062L99.8134 85.0642L99.325 86.4062H100.753V85.4062ZM122.902 98H115.355V100H122.902V98ZM116.288 98.6412L113.288 90.8365L111.421 91.5541L114.421 99.3588L116.288 98.6412ZM112.355 90.1953H98.6203V92.1953H112.355V90.1953ZM97.6804 90.8538L94.8445 98.6585L96.7243 99.3415L99.5602 91.5368L97.6804 90.8538ZM95.7844 98H88.425V100H95.7844V98ZM89.3568 99.3629L102.74 65.0036L100.876 64.2777L87.4932 98.6371L89.3568 99.3629ZM101.808 65.6406H109.144V63.6406H101.808V65.6406ZM108.215 65.0123L121.973 99.3717L123.83 98.6283L110.072 64.2689L108.215 65.0123ZM111.066 85.0582L106.331 72.3082L104.456 73.0043L109.191 85.7543L111.066 85.0582ZM104.454 72.3142L99.8134 85.0642L101.693 85.7483L106.333 72.9983L104.454 72.3142ZM100.753 86.4062H110.128V84.4062H100.753V86.4062ZM49.4344 119.641V118.641H48.4344V119.641H49.4344ZM69.2391 119.992L69.0653 120.977L69.0784 120.979L69.2391 119.992ZM72.825 121.398L72.259 122.223L72.2647 122.227L72.825 121.398ZM75.4734 124.281L74.6101 124.786L74.613 124.791L75.4734 124.281ZM75.2156 132.719L74.3776 132.173L74.3732 132.18L75.2156 132.719ZM71.7 135.742L71.2876 134.831L68.8235 135.947L71.4205 136.702L71.7 135.742ZM77.1141 148.609L76.2178 148.166L76.2158 148.17L77.1141 148.609ZM74.1375 152.148L74.711 152.968L74.713 152.966L74.1375 152.148ZM69.4969 153.766L69.6044 154.76L69.6064 154.76L69.4969 153.766ZM61.1297 154V155L61.1368 155L61.1297 154ZM49.4344 154H48.4344V155H49.4344V154ZM56.3719 125.359V124.359H55.3719V125.359H56.3719ZM56.3719 133.305H55.3719V134.305H56.3719V133.305ZM65.9578 133.188L65.8402 132.194L65.8396 132.195L65.9578 133.188ZM68.8875 126.695L68.1295 127.348L68.1376 127.357L68.146 127.366L68.8875 126.695ZM66.2859 125.477L66.4067 124.484L66.3988 124.483L66.2859 125.477ZM56.3719 139.023V138.023H55.3719V139.023H56.3719ZM56.3719 148.211H55.3719V149.211H56.3719V148.211ZM67.5516 148L67.3727 147.016L67.3597 147.018L67.3467 147.021L67.5516 148ZM70.0594 146.641L69.3137 145.974L69.3129 145.975L70.0594 146.641ZM68.1141 139.516L67.7837 140.46L67.7886 140.461L68.1141 139.516ZM49.4344 120.641H63.1688V118.641H49.4344V120.641ZM63.1688 120.641C65.8753 120.641 67.8268 120.758 69.0653 120.977L69.4128 119.007C67.995 118.757 65.8997 118.641 63.1688 118.641V120.641ZM69.0784 120.979C70.2874 121.176 71.3422 121.593 72.259 122.223L73.391 120.574C72.214 119.766 70.8782 119.246 69.3997 119.005L69.0784 120.979ZM72.2647 122.227C73.1928 122.855 73.9758 123.701 74.6101 124.786L76.3368 123.777C75.5648 122.456 74.5822 121.38 73.3853 120.57L72.2647 122.227ZM74.613 124.791C75.2179 125.812 75.5281 126.97 75.5281 128.289H77.5281C77.5281 126.639 77.1353 125.125 76.3339 123.772L74.613 124.791ZM75.5281 128.289C75.5281 129.705 75.1465 130.992 74.3776 132.173L76.0536 133.264C77.0348 131.758 77.5281 130.091 77.5281 128.289H75.5281ZM74.3732 132.18C73.6205 133.357 72.5997 134.237 71.2876 134.831L72.1124 136.653C73.7691 135.903 75.092 134.768 76.0581 133.258L74.3732 132.18ZM71.4205 136.702C73.3474 137.263 74.7608 138.197 75.7342 139.467L77.322 138.251C76.0454 136.585 74.2401 135.44 71.9795 134.782L71.4205 136.702ZM75.7342 139.467C76.7156 140.749 77.2156 142.258 77.2156 144.039H79.2156C79.2156 141.852 78.5907 139.908 77.322 138.251L75.7342 139.467ZM77.2156 144.039C77.2156 145.439 76.8881 146.811 76.2178 148.166L78.0104 149.053C78.8088 147.439 79.2156 145.765 79.2156 144.039H77.2156ZM76.2158 148.17C75.5668 149.496 74.6821 150.542 73.562 151.331L74.713 152.966C76.1242 151.973 77.2238 150.66 78.0123 149.049L76.2158 148.17ZM73.564 151.329C72.4783 152.089 71.1 152.583 69.3874 152.772L69.6064 154.76C71.5813 154.542 73.2967 153.958 74.711 152.968L73.564 151.329ZM69.3894 152.771C68.2941 152.89 65.5616 152.969 61.1226 153L61.1368 155C65.5415 154.969 68.3871 154.891 69.6044 154.76L69.3894 152.771ZM61.1297 153H49.4344V155H61.1297V153ZM50.4344 154V119.641H48.4344V154H50.4344ZM55.3719 125.359V133.305H57.3719V125.359H55.3719ZM56.3719 134.305H60.9188V132.305H56.3719V134.305ZM60.9188 134.305C63.5987 134.305 65.3473 134.267 66.076 134.18L65.8396 132.195C65.2558 132.264 63.645 132.305 60.9188 132.305V134.305ZM66.0754 134.181C67.4272 134.02 68.586 133.544 69.454 132.676L68.0398 131.262C67.564 131.737 66.8634 132.073 65.8402 132.194L66.0754 134.181ZM69.454 132.676C70.3559 131.774 70.7781 130.607 70.7781 129.273H68.7781C68.7781 130.158 68.5128 130.789 68.0398 131.262L69.454 132.676ZM70.7781 129.273C70.7781 128.015 70.4212 126.9 69.629 126.024L68.146 127.366C68.5413 127.803 68.7781 128.406 68.7781 129.273H70.7781ZM69.6455 126.043C68.8592 125.129 67.7308 124.645 66.4067 124.484L66.1652 126.469C67.1536 126.589 67.7596 126.918 68.1295 127.348L69.6455 126.043ZM66.3988 124.483C65.6409 124.397 63.5945 124.359 60.3563 124.359V126.359C63.6493 126.359 65.556 126.4 66.173 126.47L66.3988 124.483ZM60.3563 124.359H56.3719V126.359H60.3563V124.359ZM55.3719 139.023V148.211H57.3719V139.023H55.3719ZM56.3719 149.211H62.7938V147.211H56.3719V149.211ZM62.7938 149.211C65.2613 149.211 66.9619 149.145 67.7564 148.979L67.3467 147.021C66.7974 147.136 65.3262 147.211 62.7938 147.211V149.211ZM67.7304 148.984C68.9604 148.76 70.0035 148.206 70.8059 147.306L69.3129 145.975C68.834 146.512 68.2052 146.865 67.3727 147.016L67.7304 148.984ZM70.805 147.307C71.6615 146.348 72.0437 145.115 72.0437 143.711H70.0437C70.0437 144.745 69.7697 145.464 69.3137 145.974L70.805 147.307ZM72.0437 143.711C72.0437 142.513 71.7508 141.429 71.1147 140.515L69.4728 141.657C69.8367 142.18 70.0437 142.847 70.0437 143.711H72.0437ZM71.1147 140.515C70.4757 139.596 69.5619 138.956 68.4396 138.57L67.7886 140.461C68.5725 140.731 69.1118 141.138 69.4728 141.657L71.1147 140.515ZM68.4444 138.572C67.8478 138.363 66.9939 138.233 65.9557 138.15C64.8956 138.065 63.5657 138.023 61.9734 138.023V140.023C63.5374 140.023 64.8091 140.064 65.7959 140.143C66.8045 140.224 67.4429 140.34 67.7837 140.459L68.4444 138.572ZM61.9734 138.023H56.3719V140.023H61.9734V138.023ZM115.683 141.367L115.985 140.414L114.951 140.086L114.708 141.143L115.683 141.367ZM122.409 143.5L123.374 143.765L123.629 142.838L122.712 142.547L122.409 143.5ZM117.253 151.867L117.857 152.664L117.858 152.663L117.253 151.867ZM96.8859 149.922L96.1573 150.607L96.159 150.609L96.8859 149.922ZM96.9094 123.812L97.6396 124.496L97.6413 124.494L96.9094 123.812ZM118.8 122.781L118.113 123.508L118.115 123.51L118.8 122.781ZM122.316 129.109L122.548 130.082L123.563 129.84L123.278 128.836L122.316 129.109ZM115.448 130.75L114.473 130.972L114.698 131.957L115.681 131.723L115.448 130.75ZM112.894 126.531L112.267 127.31L112.271 127.314L112.894 126.531ZM101.995 127.727L101.242 127.069L101.238 127.073L101.995 127.727ZM115.381 142.32L122.107 144.453L122.712 142.547L115.985 140.414L115.381 142.32ZM121.445 143.235C120.455 146.834 118.835 149.409 116.648 151.071L117.858 152.663C120.484 150.669 122.301 147.666 123.374 143.765L121.445 143.235ZM116.649 151.07C114.469 152.723 111.656 153.586 108.136 153.586V155.586C111.991 155.586 115.256 154.636 117.857 152.664L116.649 151.07ZM108.136 153.586C103.828 153.586 100.348 152.13 97.6129 149.235L96.159 150.609C99.2991 153.932 103.319 155.586 108.136 155.586V153.586ZM97.6146 149.237C94.8936 146.342 93.4797 142.346 93.4797 137.125H91.4797C91.4797 142.717 93.0033 147.251 96.1573 150.607L97.6146 149.237ZM93.4797 137.125C93.4797 131.576 94.9098 127.413 97.6396 124.496L96.1792 123.129C93.0027 126.524 91.4797 131.237 91.4797 137.125H93.4797ZM97.6413 124.494C100.383 121.549 103.989 120.055 108.558 120.055V118.055C103.502 118.055 99.3418 119.732 96.1775 123.131L97.6413 124.494ZM108.558 120.055C112.55 120.055 115.703 121.227 118.113 123.508L119.487 122.055C116.647 119.366 112.972 118.055 108.558 118.055V120.055ZM118.115 123.51C119.509 124.82 120.606 126.75 121.354 129.383L123.278 128.836C122.463 125.968 121.216 123.68 119.485 122.053L118.115 123.51ZM122.083 128.137L115.216 129.777L115.681 131.723L122.548 130.082L122.083 128.137ZM116.423 130.528C115.972 128.549 115.009 126.936 113.516 125.749L112.271 127.314C113.372 128.189 114.112 129.388 114.473 130.972L116.423 130.528ZM113.521 125.752C112.04 124.561 110.249 123.984 108.206 123.984V125.984C109.851 125.984 111.185 126.439 112.267 127.31L113.521 125.752ZM108.206 123.984C105.387 123.984 103.036 125.011 101.242 127.069L102.749 128.384C104.142 126.786 105.932 125.984 108.206 125.984V123.984ZM101.238 127.073C99.4261 129.172 98.6281 132.429 98.6281 136.609H100.628C100.628 132.602 101.408 129.937 102.752 128.38L101.238 127.073ZM98.6281 136.609C98.6281 141.021 99.4115 144.416 101.209 146.537L102.735 145.244C101.407 143.678 100.628 140.885 100.628 136.609H98.6281ZM101.209 146.537C102.969 148.614 105.283 149.656 108.066 149.656V147.656C105.848 147.656 104.1 146.855 102.735 145.244L101.209 146.537ZM108.066 149.656C110.142 149.656 111.966 148.988 113.485 147.648L112.162 146.149C111.024 147.152 109.677 147.656 108.066 147.656V149.656ZM113.485 147.648C115.027 146.288 116.053 144.221 116.657 141.591L114.708 141.143C114.156 143.544 113.276 145.165 112.162 146.149L113.485 147.648Z" fill="#020001"/>
</svg>
