<svg width="1049" height="716" viewBox="0 0 1049 716" fill="none" xmlns="http://www.w3.org/2000/svg">
<g filter="url(#filter0_d_249_4)">
<path d="M101.56 0C48.0375 0 4.25407 39.5869 4 88.0731C4 88.0731 4 88.1498 4 88.2266C4 88.3033 4 88.3033 4 88.38V618.66C4 667.223 47.9528 707.04 101.56 707.04H947.08C1000.69 707.04 1044.64 667.223 1044.64 618.66V88.38C1044.64 88.3033 1044.64 88.3033 1044.64 88.2266C1044.64 88.1498 1044.64 88.0731 1044.64 88.0731C1044.39 39.5869 1000.6 0 947.08 0H101.56ZM157.962 39.28H890.763L524.32 270.664L157.962 39.28ZM85.8081 41.5816L524.32 318.536L962.917 41.5816C985.105 47.6423 1001.11 65.9014 1001.28 88.1498C1001.2 92.2927 996.538 100.578 989.763 107.253C982.903 114.004 976.213 118.224 976.213 118.224L976.128 118.377L524.32 408.067L72.5122 118.377L72.4275 118.224C72.4275 118.224 65.7372 114.004 58.8775 107.253C52.1025 100.578 47.4447 92.2927 47.36 88.1498C47.5294 65.9014 63.5353 47.6423 85.8081 41.5816ZM47.36 150.292L47.5294 150.445L47.6988 150.522V150.599L112.4 192.027V667.76H101.56C71.4113 667.76 47.36 645.972 47.36 618.66V150.292ZM1001.28 150.292V618.66C1001.28 645.972 977.229 667.76 947.08 667.76H936.24V192.027L1000.94 150.599V150.522L1001.28 150.292ZM155.76 219.799L524.32 456.093L892.88 219.799V667.76H155.76V219.799Z" fill="#020001"/>
</g>
<defs>
<filter id="filter0_d_249_4" x="0" y="0" width="1048.64" height="715.04" filterUnits="userSpaceOnUse" color-interpolation-filters="sRGB">
<feFlood flood-opacity="0" result="BackgroundImageFix"/>
<feColorMatrix in="SourceAlpha" type="matrix" values="0 0 0 0 0 0 0 0 0 0 0 0 0 0 0 0 0 0 127 0" result="hardAlpha"/>
<feOffset dy="4"/>
<feGaussianBlur stdDeviation="2"/>
<feComposite in2="hardAlpha" operator="out"/>
<feColorMatrix type="matrix" values="0 0 0 0 0 0 0 0 0 0 0 0 0 0 0 0 0 0 0.25 0"/>
<feBlend mode="normal" in2="BackgroundImageFix" result="effect1_dropShadow_249_4"/>
<feBlend mode="normal" in="SourceGraphic" in2="effect1_dropShadow_249_4" result="shape"/>
</filter>
</defs>
</svg>
