<svg width="1662" height="1246" viewBox="0 0 1662 1246" fill="none" xmlns="http://www.w3.org/2000/svg">
<path d="M155.812 0C70.332 0 0.40577 69.763 0 155.209C0 155.209 0 155.344 0 155.48C0 155.615 0 155.615 0 155.75V1090.25C0 1175.83 70.1968 1246 155.812 1246H1506.19C1591.8 1246 1662 1175.83 1662 1090.25V155.75C1662 155.615 1662 155.615 1662 155.48C1662 155.344 1662 155.209 1662 155.209C1661.59 69.763 1591.67 0 1506.19 0H155.812ZM245.892 69.2222H1416.24L831 476.984L245.892 69.2222ZM130.655 73.2782L831 561.349L1531.48 73.2782C1566.92 83.959 1592.48 116.137 1592.75 155.344C1592.61 162.645 1585.18 177.247 1574.36 189.009C1563.4 200.907 1552.71 208.343 1552.71 208.343L1552.58 208.613L831 719.127L109.42 208.613L109.285 208.343C109.285 208.343 98.6001 200.907 87.6445 189.009C76.8242 177.247 69.3852 162.645 69.25 155.344C69.5205 116.137 95.0835 83.959 130.655 73.2782ZM69.25 264.856L69.5205 265.127L69.791 265.262V265.397L173.125 338.405V1176.78H155.812C107.662 1176.78 69.25 1138.38 69.25 1090.25V264.856ZM1592.75 264.856V1090.25C1592.75 1138.38 1554.34 1176.78 1506.19 1176.78H1488.88V338.405L1592.21 265.397V265.262L1592.75 264.856ZM242.375 387.347L831 803.762L1419.62 387.347V1176.78H242.375V387.347Z" fill="#ADACAA"/>
</svg>
