<svg width="42" height="30" viewBox="0 0 42 30" fill="none" xmlns="http://www.w3.org/2000/svg">
<path d="M3.9375 0C1.77734 0 0.0102541 1.67969 0 3.73698C0 3.73698 0 3.74023 0 3.74349C0 3.74675 0 3.74674 0 3.75V26.25C0 28.3105 1.77393 30 3.9375 30H38.0625C40.2261 30 42 28.3105 42 26.25V3.75C42 3.74674 42 3.74675 42 3.74349C42 3.74023 42 3.73698 42 3.73698C41.9897 1.67969 40.2227 0 38.0625 0H3.9375ZM6.21387 1.66667H35.7896L21 11.4844L6.21387 1.66667ZM3.30176 1.76432L21 13.5156L38.7017 1.76432C39.5972 2.02148 40.2432 2.79622 40.25 3.74023C40.2466 3.91602 40.0586 4.26758 39.7852 4.55078C39.5083 4.83724 39.2383 5.01628 39.2383 5.01628L39.2349 5.02279L21 17.3145L2.76514 5.02279L2.76172 5.01628C2.76172 5.01628 2.4917 4.83724 2.21484 4.55078C1.94141 4.26758 1.75342 3.91602 1.75 3.74023C1.75684 2.79622 2.40283 2.02148 3.30176 1.76432ZM1.75 6.37695L1.75684 6.38346L1.76367 6.38672V6.38997L4.375 8.14779V28.3333H3.9375C2.7207 28.3333 1.75 27.4089 1.75 26.25V6.37695ZM40.25 6.37695V26.25C40.25 27.4089 39.2793 28.3333 38.0625 28.3333H37.625V8.14779L40.2363 6.38997V6.38672L40.25 6.37695ZM6.125 9.32617L21 19.3522L35.875 9.32617V28.3333H6.125V9.32617Z" fill="#FE5455"/>
</svg>
