<svg width="1041" height="708" viewBox="0 0 1041 708" fill="none" xmlns="http://www.w3.org/2000/svg">
<path d="M97.56 0C44.0375 0 0.254068 39.5869 0 88.0731C0 88.0731 0 88.1498 0 88.2266C0 88.3033 0 88.3033 0 88.38V618.66C0 667.223 43.9528 707.04 97.56 707.04H943.08C996.687 707.04 1040.64 667.223 1040.64 618.66V88.38C1040.64 88.3033 1040.64 88.3033 1040.64 88.2266C1040.64 88.1498 1040.64 88.0731 1040.64 88.0731C1040.39 39.5869 996.603 0 943.08 0H97.56ZM153.962 39.28H886.763L520.32 270.664L153.962 39.28ZM81.8081 41.5816L520.32 318.536L958.917 41.5816C981.105 47.6423 997.111 65.9014 997.28 88.1498C997.195 92.2927 992.538 100.578 985.763 107.253C978.903 114.004 972.213 118.224 972.213 118.224L972.128 118.377L520.32 408.067L68.5122 118.377L68.4275 118.224C68.4275 118.224 61.7372 114.004 54.8775 107.253C48.1025 100.578 43.4447 92.2927 43.36 88.1498C43.5294 65.9014 59.5353 47.6423 81.8081 41.5816ZM43.36 150.292L43.5294 150.445L43.6988 150.522V150.599L108.4 192.027V667.76H97.56C67.4113 667.76 43.36 645.972 43.36 618.66V150.292ZM997.28 150.292V618.66C997.28 645.972 973.229 667.76 943.08 667.76H932.24V192.027L996.941 150.599V150.522L997.28 150.292ZM151.76 219.799L520.32 456.093L888.88 219.799V667.76H151.76V219.799Z" fill="#071D88"/>
</svg>
