<svg width="108" height="73" viewBox="0 0 108 73" fill="none" xmlns="http://www.w3.org/2000/svg">
<path d="M10.125 0C4.57031 0 0.0263677 4.08724 0 9.09332C0 9.09332 0 9.10124 0 9.10916C0 9.11708 0 9.11708 0 9.125V63.875C0 68.889 4.56152 73 10.125 73H97.875C103.438 73 108 68.889 108 63.875V9.125C108 9.11708 108 9.11708 108 9.10916C108 9.10124 108 9.09332 108 9.09332C107.974 4.08724 103.43 0 97.875 0H10.125ZM15.9785 4.05556H92.0303L54 27.9453L15.9785 4.05556ZM8.49024 4.29319L54 32.888L99.5186 4.29319C101.821 4.91895 103.482 6.80415 103.5 9.10124C103.491 9.52897 103.008 10.3844 102.305 11.0736C101.593 11.7706 100.898 12.2063 100.898 12.2063L100.89 12.2221L54 42.1318L7.11035 12.2221L7.10156 12.2063C7.10156 12.2063 6.40723 11.7706 5.69531 11.0736C4.99219 10.3844 4.50879 9.52897 4.5 9.10124C4.51758 6.80415 6.17871 4.91895 8.49024 4.29319ZM4.5 15.5173L4.51758 15.5331L4.53516 15.541V15.5489L11.25 19.8263V68.9444H10.125C6.99609 68.9444 4.5 66.6949 4.5 63.875V15.5173ZM103.5 15.5173V63.875C103.5 66.6949 101.004 68.9444 97.875 68.9444H96.75V19.8263L103.465 15.5489V15.541L103.5 15.5173ZM15.75 22.6937L54 47.0904L92.25 22.6937V68.9444H15.75V22.6937Z" fill="#FFFBDC"/>
</svg>
